<svg width="24" height="24" viewBox="0 0 24 24" fill="none" xmlns="http://www.w3.org/2000/svg">
<path d="M0 12C0 15.1826 1.26428 18.2348 3.51472 20.4853C5.76516 22.7357 8.8174 24 12 24C15.1826 24 18.2348 22.7357 20.4853 20.4853C22.7357 18.2348 24 15.1826 24 12C24 8.8174 22.7357 5.76516 20.4853 3.51472C18.2348 1.26428 15.1826 0 12 0C8.8174 0 5.76516 1.26428 3.51472 3.51472C1.26428 5.76516 0 8.8174 0 12V12Z" fill="#FF697D"/>
<path d="M7.6269 11.476C7.21795 11.885 7.21795 12.5469 7.6269 12.9559L14.0985 19.4275C14.5074 19.8364 15.1694 19.8364 15.5783 19.4275C15.9873 19.0185 15.9873 18.3565 15.5783 17.9476L9.10677 11.476C8.69783 11.0671 8.03585 11.0671 7.6269 11.476V11.476Z" fill="white"/>
<path d="M7.6269 12.9535C8.03585 13.3624 8.69783 13.3624 9.10677 12.9535L15.5783 6.48189C15.9873 6.07295 15.9873 5.41097 15.5783 5.00202C15.1694 4.59308 14.5074 4.59308 14.0985 5.00202L7.6269 11.4736C7.21795 11.8825 7.21795 12.5445 7.6269 12.9535Z" fill="white"/>
</svg>
