<svg width="100" height="200" viewBox="0 0 100 200" fill="none" xmlns="http://www.w3.org/2000/svg">
<g clip-path="url(#clip0)">
<path d="M34.1742 113.1C34.1742 113.1 29.7742 126.3 32.8742 132.6C32.8742 132.6 32.2742 138.7 38.3742 163.5L40.3742 170.7C40.3742 170.7 38.9742 177.8 44.1742 186.6C44.1742 186.6 47.2742 197.1 48.6742 199.9L50.6742 199.5C50.6742 199.5 43.3742 180.8 44.2742 164.3L45.6742 160.6C45.6742 160.6 45.8742 140.9 44.9742 132.8L47.3742 132.6C47.3742 132.6 53.4742 150.1 61.9742 158.6L61.6742 162.1C61.6742 162.1 54.5742 167.4 55.1742 176.3C55.1742 176.3 51.8742 190.5 52.5742 197.7L54.3742 197.6C54.3742 197.6 55.2742 177.8 67.3742 161.8L68.7742 159.1C68.7742 159.1 68.9742 157.4 67.8742 156.3C67.8742 156.3 64.8742 140.9 55.7742 121.9C55.7742 121.9 53.6742 115.6 49.6742 113.9L34.1742 113.1Z" fill="#9DE2D2"/>
<g opacity="0.5">
<path opacity="0.5" d="M63.5744 158.2L50.0744 129.9L47.4744 132.8C48.1744 134.9 54.0744 150.6 61.9744 158.6L61.6744 162.1C61.6744 162.1 54.5744 167.4 55.1744 176.3C55.1744 176.3 54.5744 178.7 53.9744 182L63.0744 162.2L63.5744 158.2Z" fill="#9DE2D2"/>
</g>
<g opacity="0.5">
<path opacity="0.5" d="M34.2743 112.8C34.2743 112.8 29.8743 126 32.9743 132.3C32.9743 132.3 32.3743 138.4 38.4743 163.2L40.4743 170.4C40.4743 170.4 39.3743 175.8 42.5743 183.1L35.8743 112.9L34.2743 112.8Z" fill="#9DE2D2"/>
</g>
<path d="M35.8743 113.2L33.6743 115C33.5743 115.5 33.3743 116.1 33.1743 116.7L37.4743 113.3L35.8743 113.2Z" fill="#9DE2D2"/>
<path d="M41.2743 113.5L32.3743 120.5C32.2743 121 32.1743 121.5 32.1743 122.1L42.8743 113.7L41.2743 113.5Z" fill="#9DE2D2"/>
<path d="M46.5742 113.9L31.7742 125.5C31.7742 126 31.7742 126.4 31.7742 126.9L48.1742 114L46.5742 113.9Z" fill="#9DE2D2"/>
<path d="M51.0742 114.9L32.0742 129.9C32.1742 130.3 32.2742 130.7 32.3742 131.1L51.9742 115.7C51.6742 115.4 51.3742 115.1 51.0742 114.9Z" fill="#9DE2D2"/>
<path d="M53.5741 117.6L32.9741 133.8C32.9741 134.1 32.9741 134.6 33.0741 135.1L54.1741 118.5C53.9741 118.2 53.7741 117.9 53.5741 117.6Z" fill="#9DE2D2"/>
<path d="M55.2742 120.8L33.2742 138.1C33.2742 138.5 33.3742 138.9 33.4742 139.3L55.6742 121.8C55.6742 121.6 55.4742 121.2 55.2742 120.8Z" fill="#9DE2D2"/>
<path d="M45.0743 133.4L33.8743 142.2C33.9743 142.6 33.9743 143 34.0743 143.4L45.1743 134.6C45.1743 134.2 45.1743 133.8 45.0743 133.4Z" fill="#9DE2D2"/>
<path d="M47.4743 132.8C47.4743 132.8 47.4743 132.8 47.4743 132.9L57.2743 125.2C57.0743 124.9 56.9743 124.5 56.7743 124.2L45.6743 133L47.4743 132.8Z" fill="#9DE2D2"/>
<path d="M48.8741 136.4L58.7741 128.6C58.6741 128.3 58.4741 127.9 58.3741 127.6L48.4741 135.4C48.5741 135.7 48.6741 136 48.8741 136.4Z" fill="#9DE2D2"/>
<path d="M45.4743 137.7L34.6743 146.2C34.7743 146.6 34.7743 147 34.8743 147.4L45.5743 139C45.4743 138.5 45.4743 138.1 45.4743 137.7Z" fill="#9DE2D2"/>
<path d="M45.6741 142.1L35.4741 150.2C35.5741 150.6 35.6741 151 35.6741 151.4L45.6741 143.5C45.6741 143 45.6741 142.6 45.6741 142.1Z" fill="#9DE2D2"/>
<path d="M50.2743 139.8L60.1743 132C60.0743 131.7 59.8743 131.3 59.7743 131L49.8743 138.8C49.9743 139.1 50.1743 139.5 50.2743 139.8Z" fill="#9DE2D2"/>
<path d="M61.1743 134.5L51.3743 142.2C51.5743 142.5 51.6743 142.9 51.8743 143.2L61.5743 135.5C61.4743 135.2 61.2743 134.8 61.1743 134.5Z" fill="#9DE2D2"/>
<path d="M45.7742 146.6L36.2742 154.1C36.3742 154.5 36.4742 154.9 36.5742 155.3L45.8742 148C45.7742 147.5 45.7742 147.1 45.7742 146.6Z" fill="#9DE2D2"/>
<path d="M45.7742 151.1L37.0742 157.9C37.1742 158.3 37.2742 158.7 37.3742 159.1L45.7742 152.5C45.7742 152.1 45.7742 151.6 45.7742 151.1Z" fill="#9DE2D2"/>
<path d="M53.4741 146.5L62.8741 139.1C62.7741 138.7 62.5741 138.4 62.4741 138L52.9741 145.5C53.1741 145.8 53.2741 146.1 53.4741 146.5Z" fill="#9DE2D2"/>
<path d="M45.7741 155.7L37.9741 161.8C38.0741 162.2 38.1741 162.6 38.2741 162.9L45.7741 157C45.7741 156.7 45.7741 156.2 45.7741 155.7Z" fill="#9DE2D2"/>
<path d="M55.2743 149.6L64.0743 142.6C63.9743 142.2 63.8743 141.9 63.6743 141.5L54.6743 148.6C54.8743 149 55.0743 149.3 55.2743 149.6Z" fill="#9DE2D2"/>
<path d="M45.7742 160.8C45.7742 160.8 45.7742 160.6 45.7742 160.4L39.0742 165.7L39.3742 166.8L45.2742 162.1L45.7742 160.8Z" fill="#9DE2D2"/>
<path d="M57.1743 152.7L65.2743 146.3C65.1743 145.9 65.0743 145.6 64.9743 145.2L56.6743 151.8C56.7743 152.1 56.9743 152.4 57.1743 152.7Z" fill="#9DE2D2"/>
<path d="M59.2743 155.6L66.3743 150C66.2743 149.6 66.1743 149.3 66.0743 148.9L58.6743 154.7C58.8743 155.1 59.0743 155.3 59.2743 155.6Z" fill="#9DE2D2"/>
<path d="M44.2742 167.4C44.2742 166.9 44.2742 166.5 44.2742 166L40.0742 169.3L40.3742 170.4L44.2742 167.4Z" fill="#9DE2D2"/>
<path d="M61.6743 158.4L67.3743 153.9C67.2743 153.6 67.1743 153.2 67.0743 152.8L60.8743 157.6C61.1743 157.8 61.3743 158.1 61.6743 158.4Z" fill="#9DE2D2"/>
<path d="M44.3742 170.6L40.2742 173.8C40.2742 174.2 40.2742 174.6 40.3742 175.1L44.4742 171.9C44.3742 171.5 44.3742 171 44.3742 170.6Z" fill="#9DE2D2"/>
<path d="M44.6742 174.9L40.7742 178C40.8742 178.4 40.9742 178.8 41.0742 179.2L44.8742 176.2C44.7742 175.7 44.7742 175.3 44.6742 174.9Z" fill="#9DE2D2"/>
<path d="M61.6741 162.3C61.6741 162.3 60.3741 163.2 58.9741 165L68.4741 157.5C68.3741 157.2 68.1741 156.9 67.8741 156.6L61.6741 161.5V162.3Z" fill="#9DE2D2"/>
<path d="M55.4741 172.3L65.7741 164.2C66.2741 163.4 66.8741 162.6 67.4741 161.8L67.7741 161.2L55.9741 170.5C55.7741 171.2 55.5741 171.7 55.4741 172.3Z" fill="#9DE2D2"/>
<path d="M45.2743 179L41.8743 181.7C41.9743 182 42.1743 182.4 42.2743 182.7L45.4743 180.2C45.3743 179.8 45.3743 179.4 45.2743 179Z" fill="#9DE2D2"/>
<path d="M45.9743 183L43.3743 185.1C43.5743 185.4 43.6743 185.7 43.8743 186.1L46.1743 184.3C46.1743 183.8 46.0743 183.4 45.9743 183Z" fill="#9DE2D2"/>
<path d="M55.2742 176.5C55.2742 176.5 55.1742 176.8 55.0742 177.3L61.0742 172.5C61.3742 171.8 61.7742 171 62.1742 170.3L55.1742 175.8C55.1742 176 55.1742 176.2 55.2742 176.5Z" fill="#9DE2D2"/>
<path d="M46.8742 186.9L44.7742 188.5C44.8742 188.8 44.9742 189.2 45.0742 189.6L47.0742 188C47.0742 187.7 46.9742 187.3 46.8742 186.9Z" fill="#9DE2D2"/>
<path d="M53.9741 182.7L58.3741 179.3C58.5741 178.7 58.8741 178 59.0741 177.4L54.2741 181.2C54.1741 181.6 54.0741 182.1 53.9741 182.7Z" fill="#9DE2D2"/>
<path d="M47.8741 190.7L45.9741 192.2C46.0741 192.6 46.1741 192.9 46.2741 193.3L48.1741 191.8C48.0741 191.5 47.9741 191.1 47.8741 190.7Z" fill="#9DE2D2"/>
<path d="M53.1743 187.9L56.5743 185.2C56.6743 184.6 56.8743 184.1 57.0743 183.5L53.4743 186.4C53.2743 186.9 53.1743 187.4 53.1743 187.9Z" fill="#9DE2D2"/>
<path d="M52.6743 192.9L55.3743 190.8C55.4743 190.3 55.5743 189.7 55.6743 189.2L52.7743 191.5C52.6743 191.9 52.6743 192.4 52.6743 192.9Z" fill="#9DE2D2"/>
<path d="M48.9743 194.4L47.1743 195.8C47.2743 196.2 47.4743 196.5 47.5743 196.9L49.3743 195.5C49.1743 195.2 49.0743 194.8 48.9743 194.4Z" fill="#9DE2D2"/>
<path d="M52.5741 197.5L54.4741 196C54.4741 195.6 54.5741 195.1 54.6741 194.5L52.4741 196.2C52.5741 196.6 52.5741 197.1 52.5741 197.5Z" fill="#9DE2D2"/>
<path d="M48.4741 199.4C48.5741 199.6 48.6741 199.8 48.7741 200L49.6741 199.8L50.5741 199.1C50.4741 198.8 50.3741 198.5 50.1741 198L48.4741 199.4Z" fill="#9DE2D2"/>
<path d="M56.1743 194.9L66.4743 198.5L52.3743 198.1C52.3743 198.1 53.3743 195.1 56.1743 194.9Z" fill="#4C3833"/>
<g opacity="0.5">
<path opacity="0.5" d="M55.9742 195.2C55.8742 195.4 55.8742 195.5 55.8742 195.7C55.8742 197 58.0742 198.1 60.7742 198.1C61.7742 198.1 62.6742 197.9 63.3742 197.7L66.5742 198.8L52.5742 198.4C52.5742 198.4 53.4742 195.7 55.9742 195.2Z" fill="#DEDFE0"/>
</g>
<path d="M52.3743 200.2L66.6743 200.1L66.5743 198L52.3743 198.1V200.2Z" fill="#DBCCAE"/>
<path d="M50.6743 194.9L60.9743 198.5L46.8743 198.1C46.8743 198.1 47.8743 195.1 50.6743 194.9Z" fill="#4C3833"/>
<g opacity="0.5">
<path opacity="0.5" d="M50.4742 195.2C50.3742 195.4 50.3742 195.5 50.3742 195.7C50.3742 197 52.5742 198.1 55.2742 198.1C56.2742 198.1 57.1742 197.9 57.8742 197.7L61.0742 198.8L47.0742 198.4C47.1742 198.4 47.9742 195.7 50.4742 195.2Z" fill="#DEDFE0"/>
</g>
<path d="M46.8743 200.2L61.1743 200.1L61.0743 198L46.8743 198.1V200.2Z" fill="#DBCCAE"/>
<path d="M35.6744 66.5C35.6744 66.5 25.3744 76.5 34.5744 108.2L34.3744 113.9C34.3744 113.9 45.7744 119.1 50.9744 115.2C50.9744 115.2 43.5744 110.4 53.7744 86.8C53.7744 86.7 59.4744 53.7 35.6744 66.5Z" fill="#F58999"/>
<path d="M66.4744 82.1C65.3744 81.9 64.4744 80.8 64.4744 79.6C64.4744 78.3 65.3744 77.3 66.4744 77.1V76.4C64.9744 76.6 63.7744 78 63.7744 79.6C63.7744 81.2 64.9744 82.6 66.4744 82.8V82.1Z" fill="#F4C031"/>
<path d="M72.8743 75.3H66.1743V83.9H72.8743V75.3Z" fill="#F4C031"/>
<g opacity="0.3">
<path opacity="0.3" d="M71.3744 82.7001C69.4744 82.7001 67.8744 80.7 67.8744 78.3C67.8744 77.1 68.2744 76.1 68.8744 75.3H66.2744V83.9H72.9744V82.3C72.3744 82.5 71.8744 82.7001 71.3744 82.7001Z" fill="#D03030"/>
</g>
<g opacity="0.75">
<path d="M71.6406 80.6425L69.3971 80.9109C69.3638 80.9149 69.3297 80.9056 69.3015 80.885C69.2733 80.8643 69.253 80.8338 69.2448 80.7994L68.8087 78.9865C68.8025 78.9605 68.8034 78.9337 68.8112 78.909C68.8191 78.8843 68.8337 78.8628 68.8533 78.847L69.9997 77.9227C70.018 77.9079 70.04 77.8987 70.0635 77.8959C70.087 77.8931 70.111 77.8968 70.1333 77.9067L71.5238 78.5276C71.5476 78.5382 71.5683 78.5555 71.5836 78.5774C71.5989 78.5993 71.6081 78.6249 71.6101 78.6514L71.7528 80.4994C71.7555 80.5345 71.7455 80.5686 71.7247 80.5951C71.7039 80.6216 71.6739 80.6385 71.6406 80.6425Z" fill="#FF697D"/>
<path d="M71.9511 78.0667L70.144 77.2623C70.0896 77.2382 70.0307 77.2291 69.9734 77.2359C69.916 77.2428 69.8622 77.2654 69.8173 77.3014L68.3268 78.5003C68.279 78.5389 68.2434 78.5914 68.224 78.6516C68.2047 78.7118 68.2024 78.7773 68.2174 78.8406L68.7832 81.1911C68.8039 81.2747 68.8535 81.3489 68.9224 81.3992C68.9912 81.4495 69.0744 81.4722 69.1557 81.4629L72.0719 81.1141C72.1531 81.104 72.2262 81.0626 72.2769 80.998C72.3277 80.9334 72.3525 80.8503 72.3464 80.7649L72.1619 78.3688C72.1568 78.3043 72.1342 78.2418 72.0969 78.1883C72.0596 78.1349 72.0091 78.0928 71.9511 78.0667ZM70.0165 81.0363L69.8143 79.7574C69.8134 79.7518 69.8147 79.7461 69.8179 79.7417C69.8211 79.7372 69.826 79.7344 69.8313 79.7337L70.8616 79.6105C70.867 79.6099 70.8725 79.6115 70.8769 79.615C70.8814 79.6185 70.8844 79.6237 70.8853 79.6293L71.0874 80.9082L70.0165 81.0363L70.0165 81.0363ZM72.0389 80.7745C72.0393 80.7799 72.0378 80.7851 72.0346 80.7892C72.0314 80.7932 72.0268 80.7958 72.0217 80.7965L71.3917 80.8718L71.1896 79.5929C71.1752 79.503 71.1273 79.421 71.0564 79.3647C70.9855 79.3085 70.8974 79.2826 70.8114 79.2929L69.7811 79.4161C69.6951 79.4265 69.6183 79.472 69.5675 79.5428C69.5167 79.6136 69.496 79.7039 69.5101 79.7938L69.7122 81.0727L69.1055 81.1453C69.1004 81.1459 69.0952 81.1444 69.0908 81.1413C69.0865 81.1381 69.0834 81.1334 69.0821 81.1282L68.5163 78.7779C68.5154 78.7739 68.5155 78.7698 68.5167 78.766C68.5179 78.7622 68.5202 78.7589 68.5232 78.7565L70.0136 77.5576C70.0164 77.5554 70.0198 77.5539 70.0234 77.5535C70.027 77.553 70.0307 77.5536 70.0341 77.5551L71.8412 78.3596C71.8448 78.3612 71.848 78.3638 71.8503 78.3672C71.8527 78.3705 71.8541 78.3745 71.8544 78.3785L72.0389 80.7745ZM69.2658 79.2457L69.5701 79.2093L69.4354 78.3576L69.1311 78.394L69.2658 79.2457ZM69.776 79.213L70.3926 79.1393L70.3424 78.8217L70.0302 78.859L69.9865 78.5827L70.2986 78.5454L70.2484 78.2277L69.632 78.3014L69.776 79.213ZM70.9533 78.7205L70.8521 78.7326L70.7677 78.1984L70.4634 78.2348L70.598 79.0866L71.308 79.0017L71.1733 78.1497L70.8689 78.1861L70.9533 78.7205Z" fill="#333333"/>
</g>
<path d="M48.2744 65.8C48.2744 67.2 46.4744 68.3 44.2744 68.3C42.0744 68.3 40.2744 67.2 40.2744 65.8C40.2744 64.4 42.0744 63.3 44.2744 63.3C46.4744 63.3 48.2744 64.4 48.2744 65.8Z" fill="#F5CBA7"/>
<path d="M38.3743 54.1999C38.3743 54.1999 41.6743 58.5999 41.3743 64.1999C41.3743 64.1999 43.2743 66.5999 46.4743 64.7999C46.4743 64.7999 46.3743 61.5999 48.4743 60.0999C48.4743 60.0999 41.4743 53.4999 38.3743 54.1999Z" fill="#EFB48C"/>
<g opacity="0.2">
<path opacity="0.2" d="M43.0743 63.5999C43.0743 61.8999 44.8743 60.4999 47.1743 60.4999C47.4743 60.4999 47.6743 60.4999 47.9743 60.5999C48.1743 60.3999 48.2743 60.2999 48.4743 60.0999C48.4743 60.0999 41.4743 53.4999 38.3743 54.1999C38.3743 54.1999 41.6743 58.5999 41.3743 64.1999C41.3743 64.1999 42.3743 65.3999 43.9743 65.3999C43.3743 64.9999 43.0743 64.2999 43.0743 63.5999Z" fill="#DE2728"/>
</g>
<path d="M38.5743 47.5C38.5743 47.5 36.9743 59 47.7743 61.2C47.7743 61.2 55.0743 58.4 53.6743 45.6C53.6743 45.6 54.0743 40.3 45.6743 42.8C45.7743 42.9 38.9743 45.4 38.5743 47.5Z" fill="#F5CBA7"/>
<path d="M47.7743 50.2C47.7743 50.2 47.6743 52 49.9743 54.2L47.5743 55C47.4743 55 46.2743 52.2 47.7743 50.2Z" fill="#EFB48C"/>
<path d="M42.7742 49.3C42.7742 49.3 44.7742 47.2 46.3742 49C46.3742 49.1 44.8742 46.6 42.7742 49.3Z" fill="#CC6448"/>
<path d="M49.5742 49C49.5742 49 51.2742 47.2 52.6742 48.8C52.6742 48.7 51.2742 46.6 49.5742 49Z" fill="#CC6448"/>
<path d="M46.0742 56.5C46.0742 56.5 46.9742 57.6 48.3742 57.3L48.1742 58.2C48.1742 58.1 46.5742 58.1 46.0742 56.5Z" fill="white"/>
<path d="M43.0742 50.6C43.0742 50.6 43.8742 49.3 45.2742 49.3C45.2742 49.3 46.0742 49.5 45.9742 50.6H43.0742Z" fill="white"/>
<path d="M45.2741 49.3C45.0741 49.3 44.9741 49.3 44.7741 49.3L44.4741 50.6H46.0741C46.0741 49.5 45.2741 49.3 45.2741 49.3Z" fill="#7B3F32"/>
<path d="M45.3742 49.3C45.3742 49.3 45.6742 49.4 45.8742 49.7C45.6742 49.3 45.2742 49.3 45.3742 49.3C43.8742 49.2 43.0742 50.5 43.0742 50.5H43.2742C43.4742 50.3 44.0742 49.3 45.3742 49.3Z" fill="#EFB48C"/>
<path d="M44.7743 50C44.7743 50.1 44.6743 50.2001 44.5743 50.2001C44.4743 50.2001 44.3743 50.1 44.3743 50C44.3743 49.9 44.4743 49.8 44.5743 49.8C44.7743 49.8 44.7743 49.9 44.7743 50Z" fill="white"/>
<path d="M49.8743 50.4C49.8743 50.4 50.6743 49.1 52.0743 49.1C52.0743 49.1 52.8743 49.3 52.7743 50.4H49.8743Z" fill="white"/>
<path d="M52.0742 49.1C51.8742 49.1 51.7742 49.1 51.5742 49.1L51.2742 50.4H52.8742C52.8742 49.3 52.0742 49.1 52.0742 49.1Z" fill="#7B3F32"/>
<path d="M52.0742 49.2C52.0742 49.2 52.3742 49.3 52.5742 49.6C52.3742 49.2 52.0742 49.1 52.0742 49.2C50.5742 49.1 49.7742 50.4 49.7742 50.4H49.9742C50.2742 50.2 50.8742 49.1 52.0742 49.2Z" fill="#EFB48C"/>
<path d="M51.5743 49.8999C51.5743 49.9999 51.4743 50.0999 51.3743 50.0999C51.2743 50.0999 51.1743 49.9999 51.1743 49.8999C51.1743 49.7999 51.2743 49.7 51.3743 49.7C51.4743 49.7 51.5743 49.7999 51.5743 49.8999Z" fill="white"/>
<path d="M43.4742 59.2C41.1742 57.5 39.6742 54.5 39.6742 51.1C39.6742 48.7 40.3742 46.6 41.6742 44.9C40.1742 45.7 38.7742 46.7 38.6742 47.6C38.6742 47.6 37.4742 56 43.9742 59.9C43.6742 59.6 43.5742 59.4 43.4742 59.2Z" fill="#EFB48C"/>
<path d="M38.3744 47.3C38.3744 47.3 36.7744 43.6 42.1744 39.9C42.1744 39.9 50.6744 34.1 53.2744 38C53.2744 38 56.1744 41.5 53.4744 46.1C53.4744 46.1 53.0744 44.6 52.7744 44.2C52.7744 44.2 51.0744 46 48.0744 46.4C48.0744 46.4 49.8744 45.3 50.2744 43.8C50.2744 43.8 47.4744 46.6 44.8744 47.2C44.8744 47.2 45.7744 46.6 45.9744 45.8C45.9744 45.8 42.3744 48.3 39.9744 48.5C39.8744 48.6 38.5744 48 38.3744 47.3Z" fill="#CC6448"/>
<path d="M38.6743 46.8C38.6743 46.8 33.3743 48.1 35.4743 52.8C35.4743 52.8 36.4743 55.1 39.3743 54.2001C39.3743 54.2001 39.7743 55.0001 40.6743 55.7001C40.6743 55.7001 38.8743 51.8001 40.2743 48.7001L38.6743 46.8Z" fill="#CC6448"/>
<g opacity="0.5">
<path opacity="0.5" d="M54.6743 42.1C53.0743 42.9 50.9743 43.5 48.6743 43.9C48.0743 44 47.5743 44.1 47.0743 44.1C46.6743 45.1 44.4743 45.8 41.7743 45.8C40.4743 45.8 39.1743 45.6 38.2743 45.3C38.0743 46.5 38.4743 47.4 38.4743 47.4C38.7743 48.1 39.9743 48.7 39.9743 48.7C42.3743 48.5 45.9743 46 45.9743 46C45.8743 46.8 44.8743 47.4 44.8743 47.4C47.5743 46.7 50.2743 44 50.2743 44C49.9743 45.5 48.0743 46.6 48.0743 46.6C51.0743 46.2 52.7743 44.4 52.7743 44.4C53.1743 44.8 53.4743 46.3 53.4743 46.3C54.3743 44.7 54.6743 43.3 54.6743 42.1Z" fill="#CC6448"/>
</g>
<g opacity="0.5">
<path opacity="0.5" d="M39.0742 52.5C37.4742 52.5 36.0742 50.9999 36.0742 49.0999C36.0742 48.7999 36.0742 48.5 36.1742 48.2C35.1742 49.1 34.3742 50.5999 35.4742 52.8999C35.4742 52.8999 36.4742 55.1999 39.3742 54.2999C39.3742 54.2999 39.7742 55.0999 40.6742 55.7999C40.6742 55.7999 39.9742 54.4 39.7742 52.5C39.5742 52.4 39.3742 52.5 39.0742 52.5Z" fill="#CC6448"/>
</g>
<path d="M38.8743 51.5001C38.8743 51.5001 37.0743 50.9001 37.2743 52.7001C37.2743 52.7001 37.9743 55.5001 39.7743 54.2001L38.8743 51.5001Z" fill="#F5CBA7"/>
<g opacity="0.5">
<path opacity="0.5" d="M49.0743 111.7C48.4743 111.9 47.7743 112 47.1743 112C44.6743 112 42.3743 110.6 40.4743 108.1C35.6743 96.2 42.1743 88.1 42.1743 88.1C37.1743 87.6 35.5743 84.7 34.8743 82.8C35.3743 74.5 37.2743 68.4 40.6743 64.4C39.1743 64.9 37.6743 65.4 35.7743 66.4C35.7743 66.4 25.4743 76.4 34.6743 108L34.4743 113.7C34.4743 113.7 45.8743 118.9 51.0743 115C51.0743 115 49.7743 114.2 49.0743 111.7Z" fill="#F58999"/>
</g>
<path d="M51.8744 67.3L54.2744 76.6001C55.7744 79.7001 56.9744 83.2001 56.9744 88.7001C56.9744 88.7001 50.6744 91.5 40.7744 88.9L38.7744 89.5C38.7744 89.5 48.9744 94.9001 59.3744 91.1001C59.4744 91.2001 59.1744 77.8 51.8744 67.3Z" fill="#F5CBA7"/>
<path d="M67.0742 77.6L64.7742 78.2C64.1742 78.7 63.5742 78.6 63.1742 78.3L64.7742 77C65.4742 76.8 65.0742 76 65.0742 76L62.2742 77.6L59.5742 81.5L61.4742 82.4H65.7742C68.3742 80.5 67.0742 77.6 67.0742 77.6Z" fill="#F7CDA9"/>
<path d="M35.4743 66.6C35.4743 66.6 21.9743 79.4 37.3743 97.8C37.3743 97.8 50.3743 93.5 61.9743 81.8L60.4743 80.4C60.4743 80.4 52.2743 90.1 38.3743 93C38.3743 93 28.6743 85.7 37.1743 71C37.0743 71.1 38.2743 67.2 35.4743 66.6Z" fill="#F5CBA7"/>
<path d="M37.9744 28.7L40.2744 31.1L41.3744 30.7L39.9744 27.2L37.9744 28.7Z" fill="#B1D5D1"/>
<path d="M42.0745 25.5L43.9745 28.9L44.8745 28.4L44.1745 24.5L42.0745 25.5Z" fill="#B1D5D1"/>
<path d="M47.2744 25.6L47.3744 28.2L48.6744 28L48.9744 25.5L47.2744 25.6Z" fill="#B1D5D1"/>
<path d="M52.0743 24.9L51.1743 28.5L52.2743 29.5L55.2743 26.9L52.0743 24.9Z" fill="#B1D5D1"/>
<path d="M63.8744 45.3L64.5744 41.7H57.4744L58.2744 37.8H68.9744C69.4744 37.8 69.8744 37.7 70.0744 37.5C70.2744 37.3 70.4744 37 70.5744 36.6L71.0744 34C71.0744 33.9 71.0744 33.8 71.0744 33.6C71.0744 33.2 70.7744 33 70.2744 33H62.2744C61.3744 33 60.6744 32.8 60.2744 32.5C59.8744 32.2 59.6744 31.7 59.6744 31.1C59.6744 30.8 59.6744 30.6 59.7744 30.2L60.7744 25.4C60.9744 24.2 61.4744 23.4 62.0744 22.8C62.7744 22.2 63.7744 22 65.1744 22H68.6744L69.2744 19H73.1744L72.5744 22H78.1744L77.4744 25.5H66.6744C66.2744 25.5 65.8744 25.6 65.6744 25.8C65.4744 26 65.2744 26.3 65.2744 26.7L64.7744 29C64.7744 29.1 64.7744 29.2 64.6744 29.3C64.6744 29.4 64.6744 29.4 64.6744 29.5C64.6744 29.7 64.7744 29.9 64.8744 30C64.9744 30.1 65.2744 30.1 65.5744 30.1H73.5744C74.4744 30.1 75.1744 30.3 75.4744 30.6C75.8744 31 76.0744 31.4 76.0744 32C76.0744 32.1 76.0744 32.3 76.0744 32.4C76.0744 32.5 76.0744 32.7 75.9744 32.8L74.7744 38.3C74.4744 39.5 74.0744 40.3 73.3744 40.9C72.7744 41.5 71.7744 41.7 70.3744 41.7H68.2744L67.5744 45.3H63.8744Z" fill="#B1D5D1"/>
</g>
<defs>
<clipPath id="clip0">
<rect width="100" height="200" fill="white"/>
</clipPath>
</defs>
</svg>
