<svg width="100" height="200" viewBox="0 0 100 200" fill="none" xmlns="http://www.w3.org/2000/svg">
<g clip-path="url(#clip0)">
<path d="M29.7999 156.342H24.2V200.142H29.7999V156.342Z" fill="#D1D3D4"/>
<path d="M25.6001 175.242C25.6001 167.242 26.8001 160.142 28.7001 156.342H24.3V200.142H29.9001V196.142C27.4001 193.242 25.6001 185.042 25.6001 175.242Z" fill="#D1D3D4"/>
<path d="M3 93.6425L14.9 156.542L45.6 156.342L30.5 95.9425L3 93.6425Z" fill="#F4C031"/>
<path d="M3 93.6425L15.9 155.642L54.8 156.142L10.3 160.642L3 93.6425Z" fill="#DD8924"/>
<path d="M46.9 198.342H8.5V200.142H46.9V198.342Z" fill="#818386"/>
<path d="M37.5999 138.942C37.5999 138.942 55.7 137.142 65 147.342C65 147.342 65.7999 149.542 63.2999 152.742C63.2999 152.742 50.8 186.642 35.2 198.542L32.7999 198.142C32.7999 198.142 42.9999 189.742 46.8999 176.742C46.8999 176.742 45.1 170.742 55 157.942L56.5999 150.742C56.5999 150.742 49.7 153.642 35.5 152.442L27.2999 151.942L24.7 142.742L37.5999 138.942Z" fill="#5B666E"/>
<g opacity="0.5">
<path opacity="0.5" d="M57.5 145.342L34.6 139.742L24.5 142.542L27.1 151.742L35.3 152.242C49.4 153.442 56.4 150.542 56.4 150.542L54.8 157.742C44.9 170.542 46.7 176.542 46.7 176.542C42.8 189.542 32.6 197.942 32.6 197.942L35 198.342C38.9 195.442 42.6 191.142 45.9 186.342L60.3 148.842L57.5 145.342Z" fill="#5B666E"/>
</g>
<path d="M19.8 139.542C19.8 139.542 16.5 145.742 21 155.942C21 155.942 23.6 157.442 26.4 156.442C26.4 156.442 33.2 158.442 38.8 155.342L39.1 158.842V163.142C39.1 163.142 34.9 171.142 37.8 177.942C37.8 177.942 39.2 189.842 44 199.942L46 199.642C46 199.642 37.1 173.642 48.5 149.742C48.5 149.742 50.1 146.842 47.1 144.642H26.9L28.3 141.342L19.8 139.542Z" fill="#5B666E"/>
<path d="M45.9 195.642L56.5 198.942L42 198.542C42 198.542 43 195.942 45.9 195.642Z" fill="#4C3833"/>
<g opacity="0.5">
<path opacity="0.5" d="M45.8 195.942C45.7 196.042 45.7001 196.242 45.7001 196.342C45.7001 197.542 48.0001 198.442 50.7001 198.442C51.7001 198.442 52.6001 198.342 53.4001 198.042L56.7001 199.042L42.3 198.642C42.3 198.842 43.2 196.342 45.8 195.942Z" fill="#DEDFE0"/>
</g>
<path d="M56.598 198.499L41.998 198.595L42.0106 200.495L56.6106 200.399L56.598 198.499Z" fill="#DBCCAE"/>
<path d="M35.5999 195.642L46.2 198.942L31.7 198.542C31.7 198.542 32.6999 195.942 35.5999 195.642Z" fill="#4C3833"/>
<g opacity="0.5">
<path opacity="0.5" d="M35.5 195.942C35.4 196.042 35.4 196.242 35.4 196.342C35.4 197.542 37.7 198.442 40.4 198.442C41.4 198.442 42.3 198.342 43.1 198.042L46.4 199.042L32 198.642C32 198.842 32.9 196.342 35.5 195.942Z" fill="#DEDFE0"/>
</g>
<path d="M46.2977 198.499L31.6978 198.595L31.7103 200.495L46.3103 200.399L46.2977 198.499Z" fill="#DBCCAE"/>
<g opacity="0.5">
<path opacity="0.5" d="M37.4999 151.742C29.6999 151.742 23.3999 149.842 23.3999 147.542C23.3999 146.442 24.8999 145.342 27.3999 144.642H26.6999L28.0999 141.342L19.6999 139.542C19.6999 139.542 16.3999 145.742 20.8999 155.942C20.8999 155.942 23.4999 157.442 26.2999 156.442C26.2999 156.442 33.0999 158.442 38.6999 155.342L38.9999 158.842V163.142C38.9999 163.142 34.7999 171.142 37.6999 177.942C37.6999 177.942 38.0999 181.542 39.2999 186.542L41.0999 151.642C39.9999 151.642 38.7999 151.742 37.4999 151.742Z" fill="#5B666E"/>
</g>
<path d="M19.7999 101.442C19.7999 101.442 12.3999 118.042 19.7999 140.542C19.7999 140.542 30.7999 145.342 38.0999 139.142C38.0999 139.142 30.6999 125.442 41.9999 112.542L43.8999 102.442L48.6999 97.3424L49.5999 91.0424C49.5999 91.0424 36.3999 78.7424 22.9999 89.5424L19.7999 101.442Z" fill="#B0B5BD"/>
<path d="M20.1999 100.942L22.9999 89.4424C22.9999 89.4424 16.8999 93.7424 12.3999 102.342L16.1999 105.742C17.3999 104.042 18.6999 102.342 20.1999 100.942Z" fill="#B0B5BD"/>
<path d="M48.7999 90.4424L47.8999 96.8424C47.8999 96.8424 49.9999 99.8424 52.3999 103.942L56.8999 102.442C54.9999 98.1424 52.3999 93.8424 48.7999 90.4424Z" fill="#B0B5BD"/>
<g opacity="0.5">
<path opacity="0.5" d="M24.4999 109.642C24.4999 98.5424 28.5999 88.9424 34.2999 85.2424C30.7999 85.3424 26.9999 86.5424 23.0999 89.6424L19.7999 101.642C19.7999 101.642 12.3999 118.242 19.7999 140.642C19.7999 140.642 30.7999 145.442 38.0999 139.242C38.0999 139.242 37.2999 137.742 36.5999 135.242C29.6999 132.842 24.4999 122.342 24.4999 109.642Z" fill="#B0B5BD"/>
</g>
<g opacity="0.75">
<path d="M29.6404 104.643L27.3969 104.911C27.3636 104.915 27.3295 104.906 27.3012 104.885C27.273 104.864 27.2528 104.834 27.2445 104.799L26.8085 102.986C26.8022 102.961 26.8031 102.934 26.811 102.909C26.8189 102.884 26.8335 102.863 26.8531 102.847L27.9994 101.923C28.0178 101.908 28.0398 101.899 28.0632 101.896C28.0867 101.893 28.1108 101.897 28.133 101.907L29.5235 102.528C29.5473 102.538 29.5681 102.555 29.5833 102.577C29.5986 102.599 29.6078 102.625 29.6098 102.651L29.7525 104.499C29.7552 104.534 29.7452 104.569 29.7244 104.595C29.7037 104.622 29.6737 104.639 29.6404 104.643Z" fill="#FF697D"/>
<path d="M29.9508 102.067L28.1437 101.262C28.0893 101.238 28.0305 101.229 27.9731 101.236C27.9158 101.243 27.8619 101.265 27.817 101.301L26.3266 102.5C26.2788 102.539 26.2432 102.591 26.2238 102.652C26.2044 102.712 26.2021 102.777 26.2172 102.841L26.783 105.191C26.8037 105.275 26.8533 105.349 26.9221 105.399C26.991 105.449 27.0742 105.472 27.1555 105.463L30.0717 105.114C30.1529 105.104 30.226 105.063 30.2767 104.998C30.3275 104.933 30.3522 104.85 30.3462 104.765L30.1617 102.369C30.1565 102.304 30.134 102.242 30.0967 102.188C30.0594 102.135 30.0088 102.093 29.9508 102.067ZM28.0162 105.036L27.8141 103.757C27.8132 103.752 27.8145 103.746 27.8177 103.742C27.8209 103.737 27.8257 103.734 27.8311 103.734L28.8613 103.611C28.8667 103.61 28.8723 103.611 28.8767 103.615C28.8811 103.619 28.8841 103.624 28.885 103.629L29.0872 104.908L28.0162 105.036L28.0162 105.036ZM30.0387 104.775C30.0391 104.78 30.0375 104.785 30.0344 104.789C30.0312 104.793 30.0266 104.796 30.0215 104.796L29.3915 104.872L29.1893 103.593C29.175 103.503 29.1271 103.421 29.0562 103.365C28.9853 103.308 28.8972 103.283 28.8112 103.293L27.7809 103.416C27.6949 103.426 27.6181 103.472 27.5673 103.543C27.5165 103.614 27.4958 103.704 27.5099 103.794L27.712 105.073L27.1053 105.145C27.1002 105.146 27.0949 105.144 27.0906 105.141C27.0863 105.138 27.0832 105.133 27.0819 105.128L26.5161 102.778C26.5151 102.774 26.5153 102.77 26.5165 102.766C26.5177 102.762 26.5199 102.759 26.5229 102.756L28.0134 101.558C28.0162 101.555 28.0196 101.554 28.0232 101.553C28.0268 101.553 28.0304 101.554 28.0338 101.555L29.8409 102.36C29.8446 102.361 29.8478 102.364 29.8501 102.367C29.8524 102.371 29.8539 102.374 29.8542 102.379L30.0387 104.775ZM27.2655 103.246L27.5698 103.209L27.4352 102.358L27.1309 102.394L27.2655 103.246ZM27.7758 103.213L28.3923 103.139L28.3421 102.822L28.0299 102.859L27.9862 102.583L28.2983 102.545L28.2481 102.228L27.6317 102.301L27.7758 103.213ZM28.9531 102.721L28.8519 102.733L28.7674 102.198L28.4631 102.235L28.5978 103.087L29.3077 103.002L29.1731 102.15L28.8686 102.186L28.9531 102.721Z" fill="#333333"/>
</g>
<path d="M11.3999 117.642C11.3999 117.642 12.6999 111.342 16.2999 105.742L12.4999 102.342C9.89993 107.342 7.89993 113.742 7.99993 121.642L39.8999 121.242L39.9999 119.442L11.3999 117.642Z" fill="#F5CBA7"/>
<path d="M56.7999 102.542L52.2999 104.042C54.7999 108.342 57.4999 113.942 58.2999 118.742L35.4999 120.242L35.0999 121.142L61.2999 122.042C61.2999 122.042 60.8999 112.242 56.7999 102.542Z" fill="#F5CBA7"/>
<path d="M13.0999 104.042L15.3999 102.542L14.5999 105.342L13.0999 104.042Z" fill="white"/>
<path d="M54.2998 102.442L54.4998 104.242L55.6998 103.342L54.2998 102.442Z" fill="white"/>
<path d="M43.1999 90.5424C43.1999 92.7424 40.0999 94.4424 36.2999 94.4424C32.4999 94.4424 29.3999 92.6424 29.3999 90.5424C29.3999 88.3424 32.4999 86.6424 36.2999 86.6424C40.1999 86.5424 43.1999 88.3424 43.1999 90.5424Z" fill="white"/>
<path d="M31.6999 72.6425C31.6999 72.6425 30.9999 82.6425 31.4999 89.3425C31.4999 89.3425 34.9999 92.3425 39.7999 89.7425C39.7999 89.7425 38.0999 87.7425 39.1999 85.8425L31.6999 72.6425Z" fill="#EFB48C"/>
<g opacity="0.2">
<path opacity="0.2" d="M32.9999 89.2425C32.9999 87.2425 34.8999 85.6425 37.2999 85.6425C37.8999 85.6425 38.5999 85.7425 39.0999 85.9425L31.6999 72.6425C31.6999 72.6425 30.9999 82.6425 31.4999 89.3425C31.4999 89.3425 32.1999 89.9425 33.2999 90.3425C33.0999 90.0425 32.9999 89.6425 32.9999 89.2425Z" fill="#DE2728"/>
</g>
<path d="M36.6 61.2424C36.6 61.2424 30.2 67.5424 32.6 77.4424C32.6 77.4424 39.9 81.4424 46 77.1424C46 77.1424 46.6 69.2424 45.5 64.6424C45.5 64.6424 44 57.1424 36.6 61.2424Z" fill="#F5CBA7"/>
<path d="M36.7999 68.3424L36.5999 69.4424H40.5999L40.9999 67.4424L36.7999 68.3424Z" fill="#CC6448"/>
<path d="M44.8999 68.8424L44.7 69.4424L46.0999 69.7424L46.2999 68.8424H44.8999Z" fill="#CC6448"/>
<path d="M37.8 71.7425C37.8 71.7425 38.6001 70.3425 40.1001 70.4425C40.1001 70.4425 40.9001 70.6425 40.9001 71.8425L37.8 71.7425Z" fill="white"/>
<path d="M40.1001 70.4424C39.9001 70.4424 39.8001 70.4424 39.6001 70.4424L39.3 71.7424H40.9001C40.9001 70.6424 40.1001 70.4424 40.1001 70.4424Z" fill="#7B3F32"/>
<path d="M40.1001 70.4425C40.1001 70.4425 40.4001 70.5425 40.6001 70.8425C40.4001 70.5425 40.1001 70.4425 40.1001 70.4425C38.6001 70.3425 37.8 71.7425 37.8 71.7425H38.0001C38.2001 71.5425 38.8001 70.4425 40.1001 70.4425Z" fill="#EFB48C"/>
<path d="M39.6002 71.2425C39.6002 71.3425 39.5002 71.4425 39.4002 71.4425C39.3002 71.4425 39.2002 71.3425 39.2002 71.2425C39.2002 71.1425 39.3002 71.0425 39.4002 71.0425C39.5002 71.0425 39.6002 71.1425 39.6002 71.2425Z" fill="white"/>
<path d="M44.1001 71.8424C44.1001 71.8424 44.6001 70.9424 45.5001 71.0424C45.5001 71.0424 46.0001 71.1424 46.0001 71.9424L44.1001 71.8424Z" fill="white"/>
<path d="M45.5 70.9424C45.4 70.9424 45.3 70.9424 45.2 70.9424L45 71.7424H46C46 71.1424 45.5 70.9424 45.5 70.9424Z" fill="#7B3F32"/>
<path d="M45.5 71.0424C45.5 71.0424 45.7 71.1424 45.8 71.3424C45.7 71.0424 45.5 70.9424 45.5 71.0424C44.5 70.9424 44 71.8424 44 71.8424H44.1C44.3 71.6424 44.7 70.9424 45.5 71.0424Z" fill="#EFB48C"/>
<path d="M45.2 71.4424C45.2 71.5424 45.1 71.5424 45.1 71.5424C45 71.5424 45 71.4424 45 71.3424C45 71.2424 45.1 71.2424 45.1 71.2424C45.1 71.3424 45.2 71.4424 45.2 71.4424Z" fill="white"/>
<path d="M42.0999 77.5425C37.2999 77.5425 33.3999 73.3425 33.3999 68.2425C33.3999 67.1425 33.5999 66.0425 33.8999 65.0425C32.5999 67.8425 31.6999 71.8425 32.8999 76.7425C32.8999 76.7425 40.1999 80.7425 46.2999 76.4425C44.9999 77.1425 43.5999 77.5425 42.0999 77.5425Z" fill="#EFB48C"/>
<path d="M38.6999 59.7424C38.0999 59.9424 37.4999 60.2424 36.7999 60.5424C36.7999 60.5424 36.2999 61.0424 35.5999 61.9424C36.4999 60.9424 37.4999 60.2424 38.6999 59.7424Z" fill="#EFB48C"/>
<path d="M32.2 71.0424C32.2 71.0424 31 66.7424 31.7 62.7424L33.5 62.5424L32.9 60.0424L36.1 59.3424L35.8 58.1424C35.8 58.1424 39.3 55.1424 46 56.2424L46.3 57.3424C46.3 57.3424 44.7 57.0424 44.9 59.0424C44.9 59.0424 46.9 65.7424 46.2 68.1424C46.2 68.1424 45.9 64.2424 41.3 64.2424C41.3 64.2424 33.3 64.3424 33.1 73.0424L32 72.8424L32.2 71.0424Z" fill="#CC6448"/>
<path d="M31.8999 72.3424C31.8999 72.3424 30.8999 76.3424 32.0999 78.7424C32.0999 78.7424 35.5999 86.8424 40.1999 88.1424C40.1999 88.1424 41.0999 88.4424 42.7999 87.8424C42.7999 87.8424 41.7999 84.2424 46.6999 81.6424L46.3999 79.2424L46.0999 76.4424C46.0999 76.4424 43.4999 78.5424 40.7999 77.7424C40.7999 77.7424 33.1999 78.3424 32.9999 72.4424L31.8999 72.3424Z" fill="#CC6448"/>
<path d="M40.5 79.5425C40.5 79.5425 40.8 81.9425 43 81.6425L43.2 80.3425C43.3 80.3425 41.8 81.4425 40.5 79.5425Z" fill="white"/>
<path d="M42.2 76.7424C42.2 76.7424 39.8 77.6424 38.5 79.3424C38.5 79.3424 42.4 82.9424 47.3 78.9424C47.3 78.9424 46.6 77.2424 45.4 76.2424L42.2 76.7424Z" fill="#BC563F"/>
<path d="M43.6999 70.9424C43.6999 70.9424 43.8999 73.7424 45.8999 75.6424C45.8999 75.6424 45.0999 77.6424 42.7999 78.2424C42.7999 78.2424 41.4999 77.7424 42.0999 76.4424L43.6999 70.9424Z" fill="#EFB48C"/>
<g opacity="0.4">
<g opacity="0.4">
<path opacity="0.4" d="M35.1 79.9424C35.1 78.8424 35.3 77.7424 35.8 76.7424C34.4 76.0424 33.1001 74.7424 33.0001 72.5424C33.2001 68.8424 34.8 66.7424 36.6 65.6424C34.8 64.2424 33.6 62.1424 33.6 59.7424L32.8 59.9424L33.4 62.4424L31.6 62.6424C31 66.6424 32.1 70.9424 32.1 70.9424L31.9 72.2424H31.8C31.8 72.2424 30.8001 76.2424 32.0001 78.6424C32.0001 78.6424 35.5 86.7424 40.1 88.0424C40.1 88.0424 40.9 88.3424 42.4 87.8424C38.3 87.5424 35.1 84.1424 35.1 79.9424Z" fill="#CC6448"/>
</g>
<g opacity="0.4">
<path opacity="0.4" d="M46.1001 65.6425C45.9001 65.8425 45.6 66.0425 45.3 66.1425C45.9 67.0425 46.0001 68.0425 46.0001 68.0425C46.2001 67.4425 46.2001 66.6425 46.1001 65.6425Z" fill="#CC6448"/>
</g>
</g>
<path d="M32.2 69.4424C32.2 69.4424 30.6 68.4424 30 70.4424C30 70.4424 29.4999 74.0424 32.2999 72.6424L32.2 69.4424Z" fill="#F5CBA7"/>
<path d="M54.0001 118.5C53.8001 118.9 54.0001 119.2 54.4001 119.2H84.8001C85.2001 119.2 85.6001 118.9 85.8001 118.5L96.2001 99.7C96.4001 99.3 96.3001 99 95.9001 99H63.3001C62.9001 99 62.5001 99.3 62.3001 99.7L54.0001 118.5Z" fill="#818386"/>
<path d="M54.9001 118.4H85.3001L95.6001 99.7H63.1001L54.9001 118.4Z" fill="#E0E1E3"/>
<path d="M82.4001 119.1L83.3001 117.4C83.3001 117.3 83.5002 117.2 83.5002 117.2C83.5002 117.2 83.6001 117.3 83.6001 117.4L82.7001 119.1H82.4001Z" fill="#97999C"/>
<path d="M82.4001 119.1H82.5002L83.2001 117.9H83.0002L82.4001 119.1Z" fill="#6D6F72"/>
<path d="M81.5002 119.1L82.4002 117.4C82.4002 117.3 82.5002 117.2 82.6002 117.2C82.7002 117.2 82.7002 117.3 82.7002 117.4L81.8002 119.1H81.5002Z" fill="#97999C"/>
<path d="M81.5002 119.1H81.7002L82.4002 117.9H82.2002L81.5002 119.1Z" fill="#6D6F72"/>
<path d="M80.7002 119.1L81.6002 117.4C81.6002 117.3 81.7002 117.2 81.8002 117.2C81.9002 117.2 81.9002 117.3 81.9002 117.4L81.0002 119.1H80.7002Z" fill="#97999C"/>
<path d="M80.7002 119.1H80.9002L81.6002 117.9H81.4002L80.7002 119.1Z" fill="#6D6F72"/>
<path d="M79.9001 119.1L80.8001 117.4C80.8001 117.3 80.9002 117.2 81.0002 117.2C81.1002 117.2 81.1001 117.3 81.1001 117.4L80.2001 119.1H79.9001Z" fill="#97999C"/>
<path d="M79.9001 119.1H80.1001L80.7001 117.9H80.6001L79.9001 119.1Z" fill="#6D6F72"/>
<path d="M79.1001 119.1L80.0001 117.4C80.0001 117.3 80.2001 117.2 80.2001 117.2C80.3001 117.2 80.3001 117.3 80.3001 117.4L79.4001 119.1H79.1001Z" fill="#97999C"/>
<path d="M79.1001 119.1H79.3001L79.9001 117.9H79.8001L79.1001 119.1Z" fill="#6D6F72"/>
<path d="M78.3003 119.1L79.2003 117.4C79.2003 117.3 79.4003 117.2 79.4003 117.2C79.5003 117.2 79.5003 117.3 79.5003 117.4L78.6003 119.1H78.3003Z" fill="#97999C"/>
<path d="M78.3003 119.1H78.4003L79.1003 117.9H78.9003L78.3003 119.1Z" fill="#6D6F72"/>
<path d="M77.5002 119.1L78.4002 117.4C78.4002 117.3 78.5002 117.2 78.6002 117.2C78.7002 117.2 78.7002 117.3 78.7002 117.4L77.8002 119.1H77.5002Z" fill="#97999C"/>
<path d="M77.5002 119.1H77.6002L78.3002 117.9H78.1002L77.5002 119.1Z" fill="#6D6F72"/>
<path d="M76.7002 119.1L77.6002 117.4C77.6002 117.3 77.7002 117.2 77.8002 117.2C77.9002 117.2 77.9002 117.3 77.9002 117.4L77.0002 119.1H76.7002Z" fill="#97999C"/>
<path d="M76.7002 119.1H76.8002L77.5002 117.9H77.3002L76.7002 119.1Z" fill="#6D6F72"/>
<path d="M75.8003 119.1L76.7003 117.4C76.7003 117.3 76.8003 117.2 76.9003 117.2C77.0003 117.2 77.0003 117.3 77.0003 117.4L76.1003 119.1H75.8003Z" fill="#97999C"/>
<path d="M75.8003 119.1H76.0003L76.6003 117.9H76.5003L75.8003 119.1Z" fill="#6D6F72"/>
<path d="M75.0002 119.1L75.9002 117.4C75.9002 117.3 76.0002 117.2 76.1002 117.2C76.2002 117.2 76.2002 117.3 76.2002 117.4L75.3002 119.1H75.0002Z" fill="#97999C"/>
<path d="M75.0002 119.1H75.2002L75.8002 117.9H75.7002L75.0002 119.1Z" fill="#6D6F72"/>
<path d="M74.2002 119.1L75.1002 117.4C75.1002 117.3 75.2002 117.2 75.3002 117.2C75.4002 117.2 75.4002 117.3 75.4002 117.4L74.5002 119.1H74.2002Z" fill="#97999C"/>
<path d="M74.2002 119.1H74.4002L75.0002 117.9H74.9002L74.2002 119.1Z" fill="#6D6F72"/>
<path d="M84.3 119.5H35V120.9H84.3V119.5Z" fill="#6D6F72"/>
<path d="M83.9 119.1H82V119.5H83.9V119.1Z" fill="#6D6F72"/>
<path d="M57.2999 119.1H54.8999V119.5H57.2999V119.1Z" fill="#6D6F72"/>
<path d="M53.1 119.5H35V120.9H53.1V119.5Z" fill="#97999C"/>
<path d="M58.4999 120H54.8999V120.5H58.4999V120Z" fill="#5A5B5E"/>
<path d="M60.2 120H59.2V120.5H60.2V120Z" fill="#5A5B5E"/>
<path d="M43.8 120.2C43.8 120.3 43.9001 120.4 44.0001 120.4H52.0001C52.1001 120.4 52.2001 120.3 52.2001 120.2C52.2001 120.1 52.1001 120 52.0001 120H44.0001C43.9001 120 43.8 120.1 43.8 120.2Z" fill="#5A5B5E"/>
<path d="M63.9001 100L56.1001 117.4L84.9001 117.7L94.4001 100.2L63.9001 100Z" fill="#E0E1E3"/>
<path d="M37.2 120.2C37.2 120.3 37.1 120.4 37 120.4H35.7C35.6 120.4 35.5 120.3 35.5 120.2C35.5 120.1 35.6 120 35.7 120H37C37.1 120 37.2 120.1 37.2 120.2Z" fill="#5A5B5E"/>
<path d="M39.3999 120.2C39.3999 120.3 39.3 120.4 39.2 120.4H37.8999C37.7999 120.4 37.7 120.3 37.7 120.2C37.7 120.1 37.7999 120 37.8999 120H39.2C39.3 120 39.3999 120.1 39.3999 120.2Z" fill="#5A5B5E"/>
<path d="M41.5999 120.2C41.5999 120.3 41.4999 120.4 41.3999 120.4H40.0999C39.9999 120.4 39.8999 120.3 39.8999 120.2C39.8999 120.1 39.9999 120 40.0999 120H41.3999C41.4999 120 41.5999 120.1 41.5999 120.2Z" fill="#5A5B5E"/>
<g opacity="0.3">
<path opacity="0.3" d="M95.5999 99.7L54.8999 118.4H85.2999L95.5999 99.7Z" fill="#D1D3D4"/>
</g>
<g opacity="0.3">
<path opacity="0.3" d="M71.5 107L69 111.9L77.6 112L80.5 107H71.5Z" fill="#D1D3D4"/>
</g>
<g opacity="0.75">
<path d="M77.708 111.073H75.0096C74.9696 111.073 74.931 111.058 74.9016 111.03C74.8721 111.003 74.8539 110.966 74.8506 110.926L74.6741 108.821C74.6716 108.791 74.6777 108.76 74.6916 108.734C74.7055 108.707 74.7267 108.684 74.7528 108.669L76.2785 107.781C76.3029 107.766 76.3306 107.759 76.3588 107.759C76.387 107.759 76.4148 107.766 76.4391 107.781L77.9647 108.669C77.9908 108.684 78.0121 108.707 78.026 108.734C78.04 108.76 78.046 108.791 78.0435 108.821L77.8671 110.926C77.8638 110.966 77.8456 111.003 77.8161 111.03C77.7866 111.058 77.7481 111.073 77.708 111.073Z" fill="#FF697D"/>
<path d="M78.5523 108.205L76.5695 107.053C76.5099 107.018 76.4421 107 76.3731 107C76.3041 107 76.2364 107.018 76.1767 107.053L74.1939 108.205C74.1303 108.242 74.0784 108.297 74.0444 108.362C74.0103 108.428 73.9953 108.501 74.0013 108.575L74.2306 111.305C74.2394 111.402 74.2841 111.493 74.356 111.559C74.4279 111.625 74.5218 111.662 74.6195 111.662H78.1264C78.2241 111.662 78.3181 111.625 78.3901 111.559C78.462 111.493 78.5068 111.402 78.5155 111.305L78.7448 108.575C78.7508 108.501 78.7359 108.428 78.7018 108.362C78.6677 108.297 78.6159 108.242 78.5523 108.205ZM75.715 111.297V109.825C75.715 109.819 75.7176 109.813 75.7222 109.808C75.7268 109.804 75.733 109.801 75.7395 109.801H76.9784C76.9849 109.801 76.9911 109.804 76.9957 109.808C77.0003 109.813 77.0029 109.819 77.0029 109.825V111.297H75.715V111.297ZM78.1508 111.274C78.1503 111.28 78.1475 111.286 78.143 111.29C78.1385 111.294 78.1326 111.297 78.1264 111.297H77.3688V109.825C77.3686 109.722 77.3274 109.623 77.2542 109.55C77.1811 109.477 77.0819 109.436 76.9784 109.436H75.7395C75.6361 109.436 75.5369 109.477 75.4637 109.55C75.3905 109.623 75.3493 109.722 75.3491 109.825V111.297H74.6195C74.6133 111.297 74.6074 111.294 74.6029 111.29C74.5984 111.286 74.5956 111.28 74.5951 111.274L74.3657 108.544C74.3654 108.54 74.3663 108.535 74.3685 108.531C74.3706 108.527 74.3739 108.523 74.3779 108.521L76.3606 107.369C76.3644 107.366 76.3686 107.365 76.3729 107.365C76.3773 107.365 76.3815 107.366 76.3852 107.369L78.368 108.521C78.372 108.523 78.3752 108.527 78.3774 108.531C78.3795 108.535 78.3805 108.539 78.3801 108.544L78.1508 111.274ZM75.163 109.174H75.529V108.194H75.163V109.174ZM75.7714 109.206H76.5128V108.84H76.1373V108.522H76.5127V108.157H75.7714V109.206ZM77.2528 108.809H77.1311V108.194H76.7651V109.174H77.6189V108.194H77.2528V108.809Z" fill="#333333"/>
</g>
</g>
<defs>
<clipPath id="clip0">
<rect width="100" height="200" fill="white"/>
</clipPath>
</defs>
</svg>
