<svg width="100" height="200" viewBox="0 0 100 200" fill="none" xmlns="http://www.w3.org/2000/svg">
<g clip-path="url(#clip0)">
<path d="M37.6 62C37.6 62 26.7 72.6 23 90.5C23 90.5 23.4 103.9 35.6 117L36.8 115.9C36.8 115.9 26.9 104.6 26.7 90.7C26.7 90.7 30.6 77.7 37.5 70.8L37.6 62Z" fill="#A35C43"/>
<path d="M57.5 63.6C57.5 63.6 59.9 79 66 88.3C66 88.3 72.8 70.5 73.8 58L75.9 58.8C75.9 58.8 72.3 85.2 66.9 94.4C66.9 94.4 60.8 87.6 55.5 75.8L57.5 63.6Z" fill="#A35C43"/>
<path d="M37.3999 108.6C37.3999 108.6 27.2999 121.6 31.9999 132.8C31.9999 132.8 30.9999 148.5 33.3999 162.8L34.0999 170.7C34.0999 170.7 32.2999 178.7 37.0999 187.8L39.1999 200.1L41.9999 199.7C41.9999 199.7 36.0999 179.7 39.9999 163.7L41.6999 160.5C41.6999 160.5 42.2999 140.9 47.3999 127.2C47.3999 127.2 43.9999 148.7 46.3999 162.7L46.6999 170.2C46.6999 170.2 43.5999 177.3 46.8999 187.2C46.8999 187.2 47.4999 196.2 48.0999 199.6L50.5999 199.3C50.5999 199.3 47.0999 179.6 51.5999 163.5L53.6999 159.1L57.6999 113.7L56.3999 110.2L37.3999 108.6Z" fill="#3C3D32"/>
<g opacity="0.7">
<path opacity="0.7" d="M56.2999 110.2L54.4999 110L51.3999 163.6C51.3999 163.5 51.3999 163.4 51.4999 163.3L53.5999 158.9L57.5999 113.5L56.2999 110.2Z" fill="#F58161"/>
</g>
<g opacity="0.7">
<path opacity="0.7" d="M32 132.8C32 132.8 31 148.5 33.4 162.8L34.1 170.7C34.1 170.7 32.5 177.8 36.3 186.2L34.9 112.5C32.3 117.1 28.9 125.3 32 132.8Z" fill="#F58161"/>
</g>
<g opacity="0.5">
<g opacity="0.5">
<path opacity="0.5" d="M33.3 115.2L33.7 164.1L34.2 170C34.2 170 33.1 174.9 34.9 181.5L34.4 113C34 113.7 33.7 114.5 33.3 115.2Z" fill="#F58161"/>
</g>
<g opacity="0.5">
<path opacity="0.5" d="M37.5001 108C37.5001 108 37.3001 108.3 36.9001 108.8L37.6001 189.1L38.7001 195.8L38.0001 108H37.5001Z" fill="#F58161"/>
</g>
<g opacity="0.5">
<path opacity="0.5" d="M42 155.8L41.6 108.4L40.5 108.3L40.9 161.5L41.7 160C41.8 159.9 41.8 158.3 42 155.8Z" fill="#F58161"/>
</g>
<g opacity="0.5">
<path opacity="0.5" d="M41.3 199.2L42.1 199.1C42.1 199.1 41.8 197.9 41.3 195.9V199.2Z" fill="#F58161"/>
</g>
<g opacity="0.5">
<path opacity="0.5" d="M45.2001 108.7L44.1001 108.6L44.3001 137.7C44.6001 136.2 45.0001 134.7 45.3001 133.1L45.2001 108.7Z" fill="#F58161"/>
</g>
<g opacity="0.5">
<path opacity="0.5" d="M45.9 182.7L45.8 172.7C45.3 175.1 45.1 178.5 45.9 182.7Z" fill="#F58161"/>
</g>
<g opacity="0.5">
<path opacity="0.5" d="M49.4 177.1L48.9 109L47.8 108.9L48.6 198.9L49.7001 198.8L49.6 189.2C49.3001 185.7 49.2 181.5 49.4 177.1Z" fill="#F58161"/>
</g>
<g opacity="0.5">
<path opacity="0.5" d="M51.4001 109.2L51.9001 162.4L52.9001 160.2L52.5001 109.3L51.4001 109.2Z" fill="#F58161"/>
</g>
<g opacity="0.5">
<path opacity="0.5" d="M56.1001 109.6L55.1001 109.5L55.3001 140.6L56.3001 129.5L56.1001 109.6Z" fill="#F58161"/>
</g>
</g>
<path d="M85.4001 54.3999L80.4001 57.8999L84.8 56.3999C85.3 56.2999 85.6 56.5999 85.6 56.7999L83.4001 57.7999L82.7001 57.9999C82.1 58.2999 81.4001 58.5999 80.9001 58.7999L80 59.1999L74.2001 59.6999L73.8 58.9999V57.9999C73.8 57.9999 75.2 56.5999 77 55.7999C78.4 54.1999 79.9001 53.0999 79.9001 53.0999C80.9001 52.5999 80.6 53.3999 80.6 53.3999C79.6 53.8999 78.6001 55.1999 78.4001 55.3999C78.3001 55.5999 78.2 55.6999 78.1 55.7999L78.3 55.8999L83.1 52.4999C83.8 52.0999 83.8 52.9999 83.8 52.9999L80.3 55.7999L79.6 56.4999L79.9001 56.5999L79.8 56.6999L79.9001 56.5999L84.6 53.4999C85.5 52.9999 86 53.7999 86 53.7999L85.4001 54.3999Z" fill="#F5CBA7"/>
<path d="M34.9999 65.4C34.9999 65.4 29.6999 73.8 36.7999 100.6L36.5999 110.5C36.5999 110.5 42.2999 117.6 55.8999 113.4L57.4999 63.5C57.4999 63.6 45.6999 49.1 34.9999 65.4Z" fill="#A35C43"/>
<path d="M33.5 114.7L35.6 119.7L39 115.2L34.4 113L33.5 114.7Z" fill="#F5CBA7"/>
<path d="M39.9 114L32.5 123.4L33.5 124.6L40.7 114.6L39.9 114Z" fill="#F58161"/>
<path d="M50.4001 194.9L60.7001 198.5L46.6001 198.1C46.6001 198.1 47.6001 195.1 50.4001 194.9Z" fill="#4C3833"/>
<g opacity="0.5">
<path opacity="0.5" d="M50.3001 195.2C50.2001 195.4 50.2001 195.5 50.2001 195.7C50.2001 197 52.4001 198.1 55.1001 198.1C56.1001 198.1 57.0001 198 57.7001 197.7L60.9001 198.8L46.9001 198.4C46.9001 198.4 47.8001 195.6 50.3001 195.2Z" fill="#DEDFE0"/>
</g>
<path d="M46.6001 200.2L60.9001 200.1V198L46.6001 198.1V200.2Z" fill="#DBCCAE"/>
<path d="M41.1 194.9L51.4 198.5L37.3 198.1C37.3 198.1 38.3 195.1 41.1 194.9Z" fill="#4C3833"/>
<g opacity="0.5">
<path opacity="0.5" d="M41.0001 195.2C40.9001 195.4 40.9001 195.5 40.9001 195.7C40.9001 197 43.1001 198.1 45.8001 198.1C46.8001 198.1 47.7001 197.9 48.4001 197.7L51.6001 198.8L37.6001 198.4C37.6001 198.4 38.5001 195.7 41.0001 195.2Z" fill="#DEDFE0"/>
</g>
<path d="M37.3 200.3L51.6 200.2V198L37.3 198.1V200.3Z" fill="#DBCCAE"/>
<g opacity="0.5">
<path opacity="0.5" d="M51.8999 109.7C43.8999 109.7 37.4999 97.2999 37.4999 82C37.4999 71.5 40.5999 62.3 45.0999 57.7C41.8999 58.1 38.3999 60.2 34.9999 65.3C34.9999 65.3 29.6999 73.7 36.7999 100.5L36.5999 110.4C36.5999 110.4 42.2999 117.5 55.8999 113.3L56.0999 108.4C54.7999 109.3 53.3999 109.7 51.8999 109.7Z" fill="#A35C43"/>
</g>
<g opacity="0.5">
<g opacity="0.5">
<path opacity="0.5" d="M47.0999 88H46.1999V87.2H46.6999H47.0999V88ZM45.6999 88H45.1999V87.2H45.6999V88ZM44.5999 88H44.0999V87.2H44.5999V88ZM43.5999 88H42.9999V87.2H43.4999V88H43.5999ZM42.4999 88H41.9999V87.2H42.4999V88ZM41.4999 88H40.9999V87.2H41.4999V88ZM40.3999 88H39.8999V87.2H40.3999V88ZM39.3999 88H38.8999V87.2H39.3999V88ZM38.2999 88H37.7999V87.2H38.2999V88ZM37.6999 87.6H36.8999V87.1H37.6999V87.6ZM47.0999 86.7H46.2999V86.2H47.0999V86.7ZM37.6999 86.6H36.8999V86H37.6999V86.6ZM47.0999 85.7H46.2999V85.2H47.0999V85.7ZM37.6999 85.5H36.8999V85H37.6999V85.5ZM47.0999 84.7H46.2999V84.2H47.0999V84.7ZM37.6999 84.5H36.8999V84H37.6999V84.5ZM47.0999 83.6H46.2999V83.1H47.0999V83.6ZM37.6999 83.4H36.8999V82.9H37.6999V83.4ZM47.0999 82.6H46.2999V82H47.0999V82.6ZM37.6999 82.4H36.8999V81.9H37.6999V82.4ZM47.0999 81.5H46.2999V81H47.0999V81.5ZM37.6999 81.3H36.8999V80.8H37.6999V81.3ZM47.0999 80.5H46.2999V80H47.0999V80.5ZM37.6999 80.3H36.8999V79.8H37.6999V80.3ZM47.0999 79.4H46.2999V78.9H47.0999V79.4ZM37.6999 79.2H36.8999V78.7H37.6999V79.2ZM47.0999 78.4H46.2999V77.9H47.0999V78.4ZM37.6999 78.2H36.8999V77.7H37.6999V78.2ZM47.0999 77.3H46.2999V76.8H47.0999V77.3ZM37.6999 77.1H36.8999V76.6H37.6999V77.1ZM47.0999 76.3H46.2999V75.8H47.0999V76.3ZM37.6999 76.1H36.8999V75.6H37.6999V76.1ZM47.0999 75.2H46.2999V74.7H47.0999V75.2ZM37.6999 75.1H36.8999V74.6H37.6999V75.1ZM47.0999 74.2H46.2999V73.7H47.0999V74.2ZM37.6999 74H36.8999V73.5H37.6999V74ZM47.0999 73.1H46.2999V72.6H47.0999V73.1ZM37.6999 73H36.8999V72.5H37.6999V73ZM46.6999 72.1H46.4999H46.2999V71.8H46.4999V71.4H47.0999V72.1H46.6999ZM45.9999 72.1H45.4999V71.3H45.9999V72.1ZM44.9999 72.1H44.4999V71.3H44.9999V72.1ZM43.8999 72.1H43.3999V71.3H43.8999V72.1ZM42.8999 72.1H42.3999V71.3H42.8999V72.1ZM41.7999 72.1H41.2999V71.3H41.7999V72.1ZM40.7999 72.1H40.2999V71.3H40.7999V72.1ZM39.6999 72.1H39.1999V71.3H39.6999V72.1ZM38.6999 72.1H38.1999V71.3H38.6999V72.1ZM37.5999 72.1H37.2999V71.9H36.8999V71.3H37.5999V71.7V71.9V72.1Z" fill="#A35C43"/>
</g>
</g>
<path d="M42.3 59.8L48.3 69L53.2001 60.6C53.2001 60.5 47.4 56 42.3 59.8Z" fill="#F44545"/>
<path d="M43.8 49.2C43.8 49.2 44.3 54.2 44.4 59.4C44.4 59.4 46 62.6 50.9 60C50.9 60 50.4001 56.8999 53.2001 53.7999L43.8 49.2Z" fill="#EFB48C"/>
<g opacity="0.2">
<path opacity="0.2" d="M49.3999 56.9C50.1999 56.9 50.9999 57 51.6999 57.2C51.7999 56.3 52.1999 55.3 53.2999 54.2L43.8999 49.5C43.8999 49.5 44.3999 54.6 44.4999 59.4C44.4999 58 46.6999 56.9 49.3999 56.9Z" fill="#DE2728"/>
</g>
<path d="M56.1001 40.3C56.1001 40.3 57.9001 49.1 54.7001 53.5V55.5C54.7001 55.5 54.4001 57.3 50.8001 56.9C50.8001 56.9 44.6001 55.7 43.3001 47.5C43.3001 47.5 40.0001 39.5 46.8001 37.4C46.8001 37.4 53.2001 35.2 56.1001 40.3Z" fill="#F5CBA7"/>
<path d="M52.3 44.8C52.3 44.8 52.2 46.9 53.8 49.1L51.1 50.3L50.5 49.5L51.1 49C51.1 49 49.9 47 52.3 44.8Z" fill="#EFB48C"/>
<path d="M49.8 51.5C49.8 51.5 50.7 52.6 52.9 52.4L52.4 53.5C52.4 53.6 50.3 53.2 49.8 51.5Z" fill="white"/>
<path d="M46.7 42.3L46.7999 42.8L49.1 42.3L49 41.4L46.7 42.3Z" fill="#D2691F"/>
<path d="M53.4 41.9L53.3 42.5L55.4001 42.8L55.7001 41.9H53.4Z" fill="#D2691F"/>
<path d="M43.2001 45.3C43.2001 45.3 41.3001 44.5 41.1001 47.2C41.1001 47.2 41.9001 50.9 44.1001 49.3L43.2001 45.3Z" fill="#F5CBA7"/>
<path d="M46.8999 45.3C46.8999 45.3 47.6999 44.1 49.0999 44.1C49.0999 44.1 49.8999 44.3 49.7999 45.3H46.8999Z" fill="white"/>
<path d="M49.0998 44.1C48.8998 44.1 48.7998 44.1 48.5998 44.1L48.2998 45.3H49.7998C49.7998 44.3 49.0998 44.1 49.0998 44.1Z" fill="#7B3F32"/>
<path d="M49.0999 44.1C49.0999 44.1 49.3999 44.2 49.5999 44.5C49.3999 44.2 49.0999 44.1 49.0999 44.1C47.6999 44 46.8999 45.2 46.8999 45.2H47.0999C47.2999 45 47.8999 44.1 49.0999 44.1Z" fill="#EFB48C"/>
<path d="M48.6 44.8C48.6 44.9 48.5 45 48.4 45C48.3 45 48.2 44.9 48.2 44.8C48.2 44.7 48.3 44.6 48.4 44.6C48.5 44.6 48.6 44.7 48.6 44.8Z" fill="white"/>
<path d="M53.3 45.4001C53.3 45.4001 54.0001 44.3 55.2001 44.3C55.2001 44.3 55.9 44.5001 55.8 45.4001H53.3Z" fill="white"/>
<path d="M55.2 44.2C55.1 44.2 54.9 44.2 54.8 44.2L54.5 45.2999H55.8C55.9 44.3999 55.2 44.2 55.2 44.2Z" fill="#7B3F32"/>
<path d="M55.3001 44.3C55.3001 44.3 55.6001 44.4 55.7001 44.6C55.5001 44.3 55.2001 44.2 55.3001 44.3C54.0001 44.2 53.4001 45.4 53.4001 45.4H53.6001C53.7001 45.1 54.2001 44.3 55.3001 44.3Z" fill="#EFB48C"/>
<path d="M54.8 44.9C54.8 45 54.7 45.0999 54.6 45.0999C54.5 45.0999 54.5 45 54.5 44.9C54.5 44.8 54.6 44.7 54.7 44.7C54.7 44.7 54.8 44.8 54.8 44.9Z" fill="white"/>
<path d="M54.1999 55.9C53.6999 56.1 53.1999 56.3 52.6999 56.4C51.9999 56.5 51.3999 56.5 50.5999 56.4C49.8999 56.3 49.0999 55.7 48.7999 55C46.2999 53.4 44.5999 49.9 44.5999 45.9C44.5999 45.9 44.5999 45.9 44.5999 45.8H44.4999V38.5C40.7999 41.5 43.2999 47.4 43.2999 47.4C44.5999 55.7 50.7999 56.8 50.7999 56.8C53.2999 57.1 54.1999 56.2 54.4999 55.7C54.3999 55.8 54.2999 55.9 54.1999 55.9Z" fill="#EFB48C"/>
<path d="M43.5 36C43.5 36 46.1 33.5 51.2 32.3C51.2 32.3 55.9 30.9 57.4 34.4C57.4 34.4 58.8 37.7 56.2 40.6C56.2 40.6 53.1 38.9 50.3 40.9C50.3 40.9 51.8 38.8 53.9 38.6C53.9 38.6 49.9 37.9 47.2 39.6C47.2 39.6 48.4 38 49.8 37.7C49.8 37.7 46.7 37.2 44.5 39.3L43.5 36Z" fill="#D2691F"/>
<path d="M44.4999 45.2C44.4999 45.2 44.5999 47.2999 46.0999 48.7999C46.0999 48.7999 45.8999 51.9999 48.7999 55.0999L47.7999 54.9C47.7999 54.9 44.7999 51.1 44.3999 49.2L44.4999 45.2Z" fill="#EFB48C"/>
<g opacity="0.5">
<path opacity="0.5" d="M53.8001 37.6C52.8001 37.6 51.8001 37.5 50.9001 37.4C51.7001 34.9 55.7001 34.8 55.7001 34.8C51.7001 34.4 49.3001 36.4 48.7001 36.9C48.4001 36.8 48.1001 36.7 47.9001 36.6C50.2001 33.8 55.7001 33.8 55.7001 33.8C50.2001 33.2 47.4001 35.3 46.7001 36C46.6001 35.9 46.5001 35.9 46.4001 35.8C48.0001 33.8 51.8001 33 51.8001 33C48.2001 33.3 46.3001 34.8 45.8001 35.2C45.6001 35 45.5001 34.7 45.5001 34.4C44.2001 35.2 43.6001 35.8 43.6001 35.8L44.4001 39C46.6001 36.9 49.7001 37.4 49.7001 37.4C48.2001 38 47.0001 39.6 47.0001 39.6C49.7001 37.9 53.7001 38.6 53.7001 38.6C51.6001 38.8 50.1001 40.9 50.1001 40.9C52.9001 38.9 56.0001 40.6 56.0001 40.6C57.0001 39.5 57.4001 38.3 57.5001 37.3C56.5001 37.5 55.2001 37.6 53.8001 37.6Z" fill="#D2691F"/>
</g>
<path d="M42.8 47.8C42.8 47.8 40.8 43.8 40.8 39.7C40.8 39.7 40.6 37.3 42.6 36C42.6 36 43.6 35.4 44 36.3C44 36.3 44.4 37.9 44.4 39.2C44.4 39.2 42.1 42.3 43.7 47.6L42.8 47.8Z" fill="#D2691F"/>
<g opacity="0.5">
<path opacity="0.5" d="M43.2001 42.7C41.9001 42.7 40.9 41.2 40.8 39.4C40.8 39.5 40.8 39.6 40.8 39.6C40.8 43.7 42.8 47.7 42.8 47.7L43.7001 47.5C43.1001 45.7 43.1001 44 43.2001 42.7Z" fill="#D2691F"/>
</g>
<g opacity="0.75">
<path d="M43.2833 76.4805L40.3642 76.5844C40.3209 76.5859 40.2782 76.5708 40.2447 76.542C40.2112 76.5132 40.1892 76.4728 40.1832 76.4289L39.8643 74.1117C39.8597 74.0786 39.8644 74.0451 39.8778 74.0149C39.8912 73.9848 39.9128 73.9594 39.9401 73.9416L41.5366 72.902C41.5621 72.8854 41.5917 72.876 41.6222 72.8749C41.6527 72.8739 41.6832 72.881 41.7104 72.8958L43.4149 73.8179C43.444 73.8337 43.4684 73.8574 43.4851 73.8865C43.5018 73.9155 43.5102 73.9486 43.5093 73.9819L43.4465 76.3127C43.4453 76.3569 43.4279 76.3987 43.3977 76.4297C43.3675 76.4608 43.3266 76.4789 43.2833 76.4805Z" fill="#FF697D"/>
<path d="M44.0227 73.2839L41.808 72.0882C41.7414 72.0523 41.667 72.0348 41.5924 72.0374C41.5178 72.0401 41.4456 72.0628 41.3831 72.1033L39.3087 73.4517C39.2421 73.4952 39.1894 73.5573 39.1565 73.6308C39.1236 73.7042 39.1119 73.7861 39.1228 73.867L39.5369 76.8721C39.5523 76.9791 39.6062 77.0773 39.688 77.1475C39.7697 77.2176 39.8736 77.2547 39.9792 77.2515L43.7723 77.1165C43.878 77.1122 43.9774 77.0679 44.0512 76.9922C44.125 76.9165 44.1679 76.8149 44.1715 76.7071L44.2534 73.6843C44.2553 73.603 44.2347 73.5223 44.1939 73.4514C44.1531 73.3806 44.0937 73.3225 44.0227 73.2839ZM41.1419 76.806L41.0524 75.1818C41.052 75.1746 41.0545 75.1677 41.0592 75.1624C41.0639 75.1572 41.0704 75.1541 41.0775 75.1539L42.4175 75.1062C42.4245 75.1059 42.4313 75.1085 42.4366 75.1134C42.4418 75.1183 42.445 75.125 42.4454 75.1322L42.5349 76.7563L41.1419 76.8059L41.1419 76.806ZM43.7751 76.6874C43.7749 76.6941 43.7723 76.7005 43.7676 76.7053C43.763 76.7101 43.7567 76.7128 43.7501 76.7131L42.9307 76.7423L42.8412 75.1181C42.8347 75.0039 42.7841 74.8961 42.7005 74.8183C42.6169 74.7404 42.5071 74.6989 42.3953 74.7028L41.0552 74.7505C40.9434 74.7546 40.8386 74.8037 40.7639 74.8872C40.6892 74.9707 40.6506 75.0817 40.6567 75.1959L40.7462 76.82L39.957 76.8481C39.9504 76.8483 39.9438 76.846 39.9387 76.8416C39.9336 76.8372 39.9302 76.831 39.9293 76.8243L39.5152 73.8193C39.5145 73.8142 39.5152 73.8091 39.5173 73.8045C39.5193 73.7999 39.5227 73.796 39.5268 73.7932L41.6013 72.4448C41.6052 72.4423 41.6097 72.4408 41.6144 72.4407C41.6191 72.4405 41.6237 72.4416 41.6279 72.4439L43.8425 73.6395C43.847 73.642 43.8507 73.6456 43.8533 73.6501C43.8558 73.6545 43.8571 73.6596 43.857 73.6647L43.7751 76.6874ZM40.4158 74.4835L40.8116 74.4694L40.752 73.3877L40.3562 73.4018L40.4158 74.4835ZM41.0757 74.4954L41.8776 74.4669L41.8554 74.0635L41.4493 74.078L41.43 73.727L41.8359 73.7126L41.8137 73.3092L41.0119 73.3377L41.0757 74.4954ZM42.6538 74L42.5222 74.0047L42.4848 73.3262L42.089 73.3403L42.1486 74.4221L43.072 74.3892L43.0124 73.3073L42.6164 73.3213L42.6538 74Z" fill="#333333"/>
</g>
<path d="M56.4001 12.4C56.4001 8.69995 53.4001 5.69995 49.6 5.69995C45.9 5.69995 42.8 8.69995 42.8 12.4C42.8 15.2 44.5 17.5 46.8 18.6V19.1C46.5 19.2 46.2001 19.4 46.2001 19.7C46.2001 20 46.4 20.2 46.8 20.3V20.5C46.5 20.6 46.2001 20.8 46.2001 21.1C46.2001 21.4 46.4 21.6 46.8 21.7V21.9C46.5 22 46.2001 22.2 46.2001 22.5C46.2001 22.7999 46.4 23 46.8 23.1V23.2999C46.5 23.4 46.3 23.6 46.3 23.9C46.3 24.2 46.5 24.4 46.9 24.5C47.1 25.6 48 26.4 49 26.4H50.1C51.2001 26.4 52.1 25.6 52.3 24.5C52.6 24.4 52.8 24.2 52.8 23.9C52.8 23.6 52.6 23.4 52.3 23.2999V23.1C52.6 23 52.8 22.7999 52.8 22.5C52.8 22.2 52.6 22 52.3 21.9V21.7C52.6 21.6 52.8 21.4 52.8 21.1C52.8 20.8 52.6 20.6 52.3 20.5V20.3C52.6 20.2 52.8 20 52.8 19.7C52.8 19.4 52.6 19.2 52.3 19.1V18.6C54.7 17.5 56.4001 15.2 56.4001 12.4ZM53 8.59995C53.5 8.39995 54.2 8.89995 54.5 9.69995C54.8 10.5 54.7001 11.3 54.2001 11.5C53.7001 11.7 53.0001 11.2 52.7001 10.4C52.3001 9.69995 52.5 8.79995 53 8.59995Z" fill="#B1D5D1"/>
<path d="M40.5 4.20005L42.7 6.70005L43.8 6.20005L42.5 2.80005L40.5 4.20005Z" fill="#B1D5D1"/>
<path d="M44.6001 1L46.4001 4.4L47.3001 3.9L46.7001 0L44.6001 1Z" fill="#B1D5D1"/>
<path d="M49.7 1.1L49.7999 3.7L51.1 3.5L51.5 1L49.7 1.1Z" fill="#B1D5D1"/>
<path d="M54.5001 0.400024L53.6001 4.00002L54.7001 5.00002L57.8001 2.40002L54.5001 0.400024Z" fill="#B1D5D1"/>
</g>
<defs>
<clipPath id="clip0">
<rect width="100" height="200" fill="white"/>
</clipPath>
</defs>
</svg>
