<svg width="180" height="180" viewBox="0 0 180 180" fill="none" xmlns="http://www.w3.org/2000/svg">
<g clip-path="url(#clip0)">
<path d="M136.499 107.961C136.395 106.967 137.639 101.895 137.639 101.895L130.848 99.855L130.589 104.405C130.278 104.509 130.019 104.666 129.76 104.928C128.671 105.817 127.375 107.438 126.753 110.157C125.561 115.282 123.902 116.328 123.902 116.328C123.902 116.328 125.665 119.466 128.256 115.857L131.159 112.929L130.641 118.472C129.552 119.518 127.79 120.93 126.131 121.296C123.436 121.871 123.747 123.859 123.747 123.859L128.878 123.388C128.878 123.388 129.656 123.126 130.693 122.708C131.833 122.237 133.233 121.453 134.321 120.459C136.343 118.577 136.965 111.831 136.499 107.961Z" fill="url(#paint0_linear)"/>
<path d="M117.163 28.0536C117.163 28.0536 118.407 16.0257 131.056 0.0233765C131.056 0.0233765 145 14.3523 144.171 60.9474C144.171 60.9474 144.171 61.052 144.067 61.2088C138.209 72.8707 128.256 64.0851 128.308 64.0851C128.36 64.0851 119.807 47.0368 117.163 28.0536Z" fill="#E0E0E0"/>
<path d="M140.646 53.3122C142.356 53.8352 150.599 67.2751 138.572 100.169L128.775 99.0706C128.775 99.0706 126.39 73.812 128.36 64.0851C129.708 57.3913 132.196 50.6452 140.646 53.3122Z" fill="#E0E0E0"/>
<path d="M128.153 99.1752C128.153 98.966 128.308 98.8091 128.516 98.7568C133.285 97.6586 137.328 98.4431 138.572 98.7568C138.831 98.8091 139.039 99.0183 139.091 99.2798C139.713 101.79 138.002 103.411 138.002 103.411C135.306 101.895 128.723 102.418 128.723 102.418C128.049 101.895 128.101 99.9596 128.153 99.1752Z" fill="#EAEAEA"/>
<path d="M111.616 163.185C100.886 178.455 115.66 230.436 115.66 230.436C119.288 230.75 122.969 228.711 122.969 228.711C124.161 220.605 124.213 169.094 124.265 163.446C122.088 159.838 115.971 159.315 111.616 163.185Z" fill="url(#paint1_linear)"/>
<path d="M125.872 93.632L100.212 95.9852L101.664 117.74L111.616 163.185C113.275 163.812 115.919 164.597 118.718 164.649C121.31 164.701 123.125 164.021 124.265 163.394C124.265 163.028 124.265 162.871 124.265 162.871C124.991 149.902 125.872 93.632 125.872 93.632Z" fill="url(#paint2_linear)"/>
<path d="M125.872 93.6319L111.565 94.9393L81.1876 91.8539C81.1876 91.8539 77.3516 99.9597 78.6475 114.655C78.6993 115.073 78.6993 115.439 78.7512 115.857L102.597 121.976L125.457 117.635C125.716 104.457 125.872 93.6319 125.872 93.6319Z" fill="#A8A8A8"/>
<path d="M80.4619 162.453C80.4619 162.557 80.4619 162.609 80.4619 162.609C80.4619 162.609 74.5005 168.571 76.263 190.326C78.0773 212.97 80.7211 232.947 80.7211 232.947H88.3931C88.3931 232.947 88.8078 200.105 94.3026 163.708C92.6956 165.433 81.6541 163.864 80.4619 162.453Z" fill="#A8A8A8"/>
<path d="M81.2394 91.8539C81.2394 91.8539 77.4034 99.9597 78.6994 114.655C80.099 131.075 80.4619 160.204 80.4619 162.453C81.706 163.865 83.935 165.852 87.149 166.113C90.4666 166.375 92.6956 165.433 94.3026 163.655C96.3243 150.372 98.968 136.148 102.597 121.976L108.973 113.19L111.616 94.887L81.2394 91.8539Z" fill="#A8A8A8"/>
<path d="M95.8059 -32.9749L92.1772 -5.93826C92.1772 -5.93826 98.1904 3.21341 107.625 3.94555C117.059 4.67768 118.407 0.546352 118.407 0.546352L113.794 -32.3997L95.8059 -32.9749Z" fill="url(#paint3_linear)"/>
<path d="M82.3798 87.984C82.3798 87.984 112.031 65.4448 126.079 89.1345C126.079 89.1345 126.442 92.3768 125.872 95.6714C125.872 95.6714 104.204 101.11 79.7361 95.2531L82.3798 87.984Z" fill="#E5E5E5"/>
<path d="M86.0603 -5.57218L109.802 -6.51349L125.353 -3.21889C125.353 -3.21889 127.79 23.8701 115.971 43.4285L86.0603 -5.57218Z" fill="#7AD1D0"/>
<path d="M109.854 -6.51349L105.344 -3.53266L108.662 4.83459C109.076 5.8282 110.061 6.45574 111.098 6.35115C112.187 6.24656 113.016 5.46213 113.275 4.41623L114.986 -3.95102L109.854 -6.51349Z" fill="#4E889C"/>
<path d="M112.187 3.841L121.621 29.6226L114.986 51.6912L105.344 40.6569L109.854 4.05019L112.187 3.841Z" fill="url(#paint4_linear)"/>
<path d="M130.485 -0.185791L124.472 -3.79416C124.472 -3.79416 124.369 12.6266 120.947 24.6545C118.459 33.2832 115.504 38.1466 115.504 38.1466L86.1122 -5.5722C86.1122 -5.5722 71.6494 -0.97022 65.8954 0.860115C69.5759 8.7044 66.7248 24.7068 75.5891 47.0891C78.5438 54.6719 81.6541 74.0735 81.6541 74.0735C81.6541 80.6627 80.4618 86.3106 78.4402 102.47C76.0556 121.61 77.9218 143.208 77.9218 143.208C88.1338 145.195 105.603 145.666 110.787 144.934C112.187 144.724 114.312 102.051 115.193 102.47C117.474 103.463 125.924 95.9852 125.924 95.9852C125.924 95.9852 126.857 82.3884 127.894 68.6348C128.464 60.6336 136.084 38.7742 136.032 25.4912C135.877 12.2082 130.485 -0.185791 130.485 -0.185791Z" fill="#EAEAEA"/>
<path d="M130.485 -0.185753L124.472 -3.79413C124.472 -3.79413 124.369 12.6266 120.947 24.6545C118.459 33.2832 115.504 38.1467 115.504 38.1467L115.919 38.9834C116.956 41.0752 117.474 43.3239 117.37 45.6249C116.593 63.6668 113.223 144.672 113.845 144.934C116.126 145.927 125.405 144.934 125.405 144.934C125.405 144.934 126.857 82.3362 127.842 68.6348C128.412 60.6337 136.032 38.7742 135.98 25.4912C135.877 12.2082 130.485 -0.185753 130.485 -0.185753Z" fill="url(#paint5_linear)"/>
<path d="M100.886 3.99787C100.886 3.99787 107.78 -4.94462 109.802 -6.51348C109.802 -6.51348 91.0367 -10.1219 92.0217 -12.6843C92.0217 -12.6843 90.9849 -12.6843 89.7408 -10.9063C88.8595 -9.70349 86.0603 -5.57217 86.0603 -5.57217L100.886 3.99787Z" fill="#AFE3E3"/>
<path d="M109.854 -6.51352C109.854 -6.51352 115.712 -4.36942 117.526 2.89962C117.526 2.89962 124.317 -0.394977 124.472 -3.79417C124.472 -3.79417 121.466 -10.0173 118.407 -10.6971C118.355 -10.6971 116.956 -8.86681 109.854 -6.51352Z" fill="#AFE3E3"/>
<path d="M86.0603 -5.5722C86.0603 -5.5722 112.705 34.1199 114.986 37.4145C114.986 37.4145 117.008 40.1862 117.163 43.4285L92.229 26.0141L93.0066 18.013L86.6823 18.4836L80.7728 -3.84646L86.0603 -5.5722Z" fill="#F5F5F5"/>
<path d="M124.472 -3.79413L128.412 -1.44084L129.449 12.1559L126.96 14.6138L129.449 17.6992C129.449 17.6992 124.109 35.3227 116.282 39.7678L115.038 38.8265C114.986 38.8265 124.835 11.0054 124.472 -3.79413Z" fill="#F5F5F5"/>
<path d="M82.5872 37.0485C82.4836 36.6824 82.7428 36.4209 83.1056 36.3686L98.346 35.9503C98.7088 35.9503 99.0199 36.2117 99.0199 36.5778V37.8852C99.0199 38.2512 98.7088 38.565 98.346 38.565H83.624C83.2611 38.565 82.8983 38.3035 82.7946 37.9375L82.5872 37.0485Z" fill="#F5F5F5"/>
<path d="M86.9415 36.3163V33.2309H87.7709H89.5334V36.264L86.9415 36.3163Z" fill="#3D7D92"/>
<path d="M87.6155 30.3547L87.771 33.2309H88.6522V30.3547H87.6155Z" fill="#8BB1BE"/>
<path d="M88.1338 31.8189C88.6522 31.8189 89.4297 31.8712 89.5334 33.2309H86.9415C86.9415 33.2309 86.9415 31.7666 88.1338 31.8189Z" fill="#3D7D92"/>
<path d="M86.9415 33.8584V33.2309H89.5334V33.8584H86.9415Z" fill="#8BB1BE"/>
<path d="M87.9783 33.4924C87.7191 33.4401 87.5117 33.7539 87.5117 34.12L87.6154 42.8533C87.6154 43.2193 87.8227 43.5331 88.0301 43.5331C88.2374 43.5331 88.393 43.2193 88.393 42.8533V34.2246C88.393 33.8585 88.1856 33.5447 87.9783 33.4924Z" fill="#8BB1BE"/>
<path d="M114.675 48.1351C114.571 49.1287 113.742 49.8608 112.757 49.7562C111.772 49.6516 111.046 48.8149 111.15 47.8213C111.254 46.8277 112.083 46.0955 113.068 46.2001C114.053 46.2524 114.779 47.1414 114.675 48.1351Z" fill="#E0E0E0"/>
<path d="M114.675 69.0532C114.675 70.0468 113.897 70.8312 112.912 70.8312C111.927 70.8312 111.15 70.0468 111.15 69.0532C111.15 68.0596 111.927 67.2751 112.912 67.2751C113.897 67.2751 114.675 68.0596 114.675 69.0532Z" fill="#E0E0E0"/>
<path d="M113.379 89.919C113.379 90.9126 112.601 91.697 111.616 91.697C110.631 91.697 109.854 90.9126 109.854 89.919C109.854 88.9254 110.631 88.141 111.616 88.141C112.549 88.141 113.379 88.9254 113.379 89.919Z" fill="#E0E0E0"/>
<path d="M114.467 47.6121C114.467 48.6057 113.69 49.3901 112.705 49.3901C111.72 49.3901 110.943 48.6057 110.943 47.6121C110.943 46.6185 111.72 45.834 112.705 45.834C113.638 45.834 114.467 46.6185 114.467 47.6121Z" fill="#F5F5F5"/>
<path d="M114.467 68.6871C114.467 69.6807 113.69 70.4651 112.705 70.4651C111.72 70.4651 110.943 69.6807 110.943 68.6871C110.943 67.6935 111.72 66.9091 112.705 66.9091C113.638 66.9091 114.467 67.6935 114.467 68.6871Z" fill="#F5F5F5"/>
<path d="M113.12 89.6052C113.12 90.5988 112.342 91.3832 111.357 91.3832C110.372 91.3832 109.595 90.5988 109.595 89.6052C109.595 88.6116 110.372 87.8271 111.357 87.8271C112.342 87.8271 113.12 88.6116 113.12 89.6052Z" fill="#F5F5F5"/>
<path d="M83.5202 83.016L82.0688 96.5082C82.0688 96.5082 81.8096 97.5541 82.7945 98.0247C83.7794 98.4954 95.3911 99.2275 95.3911 99.2275C95.3911 99.2275 97.1536 99.2275 97.4128 97.8156C97.672 96.4036 98.294 83.016 98.294 83.016H83.5202Z" fill="url(#paint6_linear)"/>
<path d="M83.6757 80.0352C83.7276 79.6691 84.0386 79.4076 84.4015 79.4599L98.3459 80.6627C98.7087 80.715 99.0198 81.0288 99.0198 81.3948V83.6958C99.0198 84.0619 98.7087 84.3234 98.3459 84.3234L83.8831 83.5389C83.5202 83.5389 83.261 83.2252 83.3129 82.8591L83.6757 80.0352Z" fill="#F5F5F5"/>
<path d="M132.065 38.138H126.469C126.386 38.138 126.306 38.1065 126.245 38.0498C126.184 37.9931 126.146 37.9154 126.139 37.832L125.773 33.4301C125.768 33.3672 125.78 33.304 125.809 33.248C125.838 33.192 125.882 33.1454 125.936 33.1135L129.1 31.2557C129.151 31.226 129.208 31.2104 129.267 31.2104C129.325 31.2104 129.383 31.226 129.433 31.2557L132.597 33.1135C132.651 33.1453 132.695 33.192 132.724 33.248C132.753 33.304 132.766 33.3671 132.761 33.4301L132.395 37.832C132.388 37.9154 132.35 37.9931 132.289 38.0498C132.228 38.1065 132.148 38.138 132.065 38.138Z" fill="#FF697D"/>
<path d="M133.816 32.1434L129.704 29.7344C129.58 29.6621 129.44 29.624 129.296 29.624C129.153 29.624 129.013 29.6621 128.889 29.7344L124.777 32.1434C124.645 32.2211 124.538 32.3349 124.467 32.4716C124.396 32.6082 124.365 32.7622 124.378 32.9158L124.853 38.6236C124.871 38.8269 124.964 39.0161 125.113 39.1542C125.262 39.2923 125.457 39.3694 125.66 39.3705H132.933C133.135 39.3695 133.33 39.2924 133.479 39.1543C133.629 39.0162 133.721 38.827 133.739 38.6236L134.215 32.9158C134.227 32.7622 134.196 32.6082 134.126 32.4716C134.055 32.3349 133.948 32.2212 133.816 32.1434ZM127.932 38.6066V35.5307C127.932 35.5172 127.937 35.5042 127.947 35.4946C127.956 35.485 127.969 35.4797 127.982 35.4797H130.552C130.565 35.4797 130.578 35.485 130.588 35.4946C130.597 35.5042 130.602 35.5172 130.602 35.5307V38.6065H127.932V38.6066ZM132.983 38.5596C132.982 38.5724 132.976 38.5843 132.967 38.593C132.958 38.6017 132.945 38.6065 132.933 38.6066H131.361V35.5307C131.361 35.3145 131.276 35.1073 131.124 34.9545C130.972 34.8017 130.766 34.7159 130.552 34.7158H127.982C127.768 34.7159 127.562 34.8017 127.411 34.9545C127.259 35.1073 127.173 35.3145 127.173 35.5307V38.6065H125.66C125.647 38.6065 125.635 38.6016 125.625 38.5929C125.616 38.5842 125.61 38.5723 125.609 38.5595L125.134 32.8521C125.133 32.8424 125.135 32.8328 125.139 32.8242C125.144 32.8156 125.15 32.8085 125.159 32.8036L129.271 30.3946C129.278 30.39 129.287 30.3876 129.296 30.3876C129.305 30.3876 129.314 30.39 129.322 30.3945L133.433 32.8035C133.442 32.8084 133.449 32.8155 133.453 32.8241C133.457 32.8327 133.459 32.8423 133.459 32.852L132.983 38.5596ZM126.787 34.168H127.546V32.1196H126.787V34.168ZM128.049 34.235H129.586V33.4711H128.808V32.8065H129.586V32.0426H128.049V34.235ZM131.121 33.4048H130.868V32.1199H130.109V34.1686H131.88V32.1196H131.121V33.4048Z" fill="#333333"/>
<path d="M79.7361 28.8904C79.7361 28.8904 78.492 16.8625 65.8436 0.860107C65.8436 0.860107 51.8992 15.189 52.7286 61.7841C52.7286 61.7841 52.7286 61.8887 52.8323 62.0456C58.6899 73.7074 68.6428 64.9218 68.591 64.9218C68.591 64.9741 77.0924 47.9259 79.7361 28.8904Z" fill="#EAEAEA"/>
<path d="M67.295 101.058C69.524 86.8335 68.1244 79.9828 68.1244 79.9828L53.5061 80.2443C53.7653 88.8207 59.4675 101.633 61.1781 107.333C61.1781 107.333 61.8002 107.542 64.5994 106.863C67.5023 106.183 66.8803 107.019 67.0876 106.026C66.984 105.451 67.295 101.058 67.295 101.058Z" fill="url(#paint7_linear)"/>
<path d="M56.2535 54.2013C54.5429 54.7242 46.3007 68.1641 58.3271 101.058L68.1763 99.9596C68.1763 99.9596 70.5608 74.701 68.591 64.9741C67.1913 58.2803 64.7031 51.4819 56.2535 54.2013Z" fill="#EAEAEA"/>
<path d="M68.7465 100.012C68.7465 99.8027 68.591 99.6458 68.3836 99.5935C63.6145 98.4953 59.5712 99.2797 58.3271 99.5935C58.0679 99.6458 57.8605 99.855 57.8087 100.116C57.1866 102.627 58.8973 104.248 58.8973 104.248C61.5928 102.731 68.1763 103.254 68.1763 103.254C68.8501 102.731 68.7983 100.796 68.7465 100.012Z" fill="#F5F5F5"/>
<path d="M79.0104 122.237H75.4336V117.635C75.4336 116.851 74.7597 116.171 73.9822 116.171H55.3205C54.5429 116.171 53.8691 116.851 53.8691 117.635V122.237H50.2922V117.635C50.2922 114.811 52.5731 112.563 55.3205 112.563H73.9822C76.7814 112.563 79.0104 114.864 79.0104 117.635V122.237Z" fill="#727272"/>
<path d="M59.0528 123.597H45.1603C45.1603 122.081 45.8342 120.878 46.6636 120.878H57.5495C58.3789 120.878 59.0528 122.133 59.0528 123.597Z" fill="#989898"/>
<path d="M84.1423 123.597H70.2498C70.2498 122.081 70.9236 120.878 71.7531 120.878H82.639C83.4684 120.878 84.1423 122.133 84.1423 123.597Z" fill="#989898"/>
<path d="M91.1923 166.531H39.5617C37.0217 166.531 35 164.492 35 161.93V128.147C35 125.271 37.3327 122.917 40.1838 122.917H90.8294C93.4731 122.917 95.5985 125.061 95.5985 127.728V162.034C95.6503 164.492 93.6287 166.531 91.1923 166.531Z" fill="#E8384C"/>
<path d="M95.6503 134.161H35V136.671H95.6503V134.161Z" fill="#727272"/>
<path d="M47.6485 131.651H43.8644V132.958H47.6485V131.651Z" fill="#989898"/>
<path d="M45.886 141.587H45.6268C44.3827 141.587 43.3459 140.541 43.3459 139.286V132.383H48.1669V139.338C48.1669 140.541 47.182 141.587 45.886 141.587Z" fill="#EAEAEA"/>
<path d="M48.1669 137.612H43.3459V138.606H48.1669V137.612Z" fill="#D5D5D5"/>
<path d="M87.9265 131.651H84.1423V132.958H87.9265V131.651Z" fill="#989898"/>
<path d="M86.164 141.587H85.9048C84.6607 141.587 83.6239 140.541 83.6239 139.286V132.383H88.4448V139.338C88.4448 140.541 87.4599 141.587 86.164 141.587Z" fill="#EAEAEA"/>
<path d="M88.4448 137.612H83.6239V138.606H88.4448V137.612Z" fill="#D5D5D5"/>
<path d="M64.9623 160.099C69.8006 160.099 73.7229 156.142 73.7229 151.261C73.7229 146.38 69.8006 142.423 64.9623 142.423C60.1239 142.423 56.2017 146.38 56.2017 151.261C56.2017 156.142 60.1239 160.099 64.9623 160.099Z" fill="#A92937"/>
<path d="M67.3468 156.072C67.3468 156.7 66.8285 157.223 66.2064 157.223H63.7182C63.0961 157.223 62.5778 156.7 62.5778 156.072V146.398C62.5778 145.77 63.0961 145.247 63.7182 145.247H66.2064C66.8285 145.247 67.3468 145.77 67.3468 146.398V156.072Z" fill="white"/>
<path d="M69.7832 148.856C70.4052 148.856 70.9236 149.379 70.9236 150.006V152.516C70.9236 153.144 70.4052 153.667 69.7832 153.667H60.1932C59.5711 153.667 59.0527 153.144 59.0527 152.516V150.006C59.0527 149.379 59.5711 148.856 60.1932 148.856H69.7832Z" fill="white"/>
<path d="M37.6956 132.383V128.67C37.6956 126.996 39.0433 125.637 40.7022 125.637V132.383H37.6956Z" fill="#F07A88"/>
<path d="M40.7022 162.609C39.0433 162.609 37.6956 161.25 37.6956 159.576V139.024H40.7022V162.609Z" fill="#F07A88"/>
<path d="M61.5929 105.817L61.1263 107.281L61.5929 117.426C61.5929 117.426 63.7701 119.204 64.6513 119.309C65.4807 119.413 67.8134 119.361 68.5392 118.943C69.2649 118.524 70.9237 116.171 70.9237 116.171C70.9237 116.171 69.9906 115.387 69.7314 114.184C69.4722 112.981 70.2498 112.563 70.2498 112.563H72.427C72.427 112.563 69.2131 106.549 66.984 105.921C64.8068 105.346 61.5929 105.817 61.5929 105.817Z" fill="url(#paint8_linear)"/>
</g>
<defs>
<linearGradient id="paint0_linear" x1="130.502" y1="88.3562" x2="130.803" y2="126.605" gradientUnits="userSpaceOnUse">
<stop stop-color="#F6B98A"/>
<stop offset="1" stop-color="#F4C6A6"/>
</linearGradient>
<linearGradient id="paint1_linear" x1="117.116" y1="212.491" x2="113.897" y2="100.779" gradientUnits="userSpaceOnUse">
<stop stop-color="#A8A8A8"/>
<stop offset="1" stop-color="#7B7979"/>
</linearGradient>
<linearGradient id="paint2_linear" x1="116.286" y1="208.739" x2="113.3" y2="105.143" gradientUnits="userSpaceOnUse">
<stop stop-color="#A8A8A8"/>
<stop offset="1" stop-color="#7B7979"/>
</linearGradient>
<linearGradient id="paint3_linear" x1="107.292" y1="-16.923" x2="99.7789" y2="14.1828" gradientUnits="userSpaceOnUse">
<stop stop-color="#F6B98A"/>
<stop offset="1" stop-color="#F4C6A6"/>
</linearGradient>
<linearGradient id="paint4_linear" x1="110.683" y1="9.99867" x2="114.111" y2="40.3603" gradientUnits="userSpaceOnUse">
<stop stop-color="#4E889C"/>
<stop offset="1" stop-color="#0C5C77"/>
</linearGradient>
<linearGradient id="paint5_linear" x1="131.498" y1="71.1507" x2="95.3258" y2="70.0302" gradientUnits="userSpaceOnUse">
<stop stop-color="#F5F5F5"/>
<stop offset="0.9946" stop-color="#C4C3C3"/>
</linearGradient>
<linearGradient id="paint6_linear" x1="90.151" y1="90.609" x2="89.1536" y2="50.1824" gradientUnits="userSpaceOnUse">
<stop stop-color="#F5F5F5"/>
<stop offset="0.9946" stop-color="#C4C3C3"/>
</linearGradient>
<linearGradient id="paint7_linear" x1="-140.82" y1="595.271" x2="-155.376" y2="630.981" gradientUnits="userSpaceOnUse">
<stop stop-color="#F6B98A"/>
<stop offset="1" stop-color="#F4C6A6"/>
</linearGradient>
<linearGradient id="paint8_linear" x1="-30.4889" y1="352.651" x2="-37.4335" y2="369.688" gradientUnits="userSpaceOnUse">
<stop stop-color="#F6B98A"/>
<stop offset="1" stop-color="#F4C6A6"/>
</linearGradient>
<clipPath id="clip0">
<rect width="180" height="180" fill="white"/>
</clipPath>
</defs>
</svg>
