<svg width="24" height="24" viewBox="0 0 24 24" fill="none" xmlns="http://www.w3.org/2000/svg">
<path d="M11.9822 23.9782L11.9834 21.7306L3.84019 21.7264C2.96177 21.7264 2.24757 21.0122 2.24757 20.1344V3.83958C2.24757 2.96176 2.96177 2.24756 3.83959 2.24756L11.9822 2.25176L11.9834 0.00419543L3.84019 0C1.72239 0 7.62939e-06 1.72246 7.62939e-06 3.83958V20.1344C7.62939e-06 22.2516 1.72239 23.974 3.83959 23.974L11.9822 23.9782Z" fill="white"/>
<path d="M13.5462 21.7301H11.9869V23.9777H13.5462V21.7301ZM16.8426 21.7285H15.1944V23.9761H16.8426V21.7285ZM18.4914 23.9748L20.1391 23.974V21.7264L18.4903 21.7272L18.4914 23.9748ZM22.3303 23.2814C22.975 22.8301 23.4598 22.2025 23.732 21.4665L21.624 20.6868C21.5114 20.9916 21.308 21.2545 21.0413 21.4402L22.3303 23.2814ZM23.9697 17.8001H21.7222V19.4483H23.9697V17.8001ZM23.9697 14.5037H21.7222V16.1519H23.9697V14.5037ZM23.9697 11.2072H21.7222V12.8554H23.9697V11.2072ZM23.9697 7.9108H21.7222V9.55901H23.9697V7.9108ZM23.9697 4.61438H21.7222V6.26259H23.9697V4.61438ZM21.6413 3.33619L23.7739 2.62641C23.5261 1.88187 23.0622 1.23869 22.4321 0.766254L21.0837 2.56445C21.3441 2.75864 21.5387 3.02799 21.6413 3.33619ZM13.6351 0.00373232H11.9869V2.25129H13.6351V0.00373232ZM16.9316 0.00208387H15.2834V2.24964H16.9316V0.00208387ZM20.1887 2.2486L20.2672 0.00245826C20.2216 0.000868189 20.1759 6.91103e-05 20.1302 6.10352e-05L18.5793 0.00088526L18.5805 2.24845L20.1308 2.24762C20.1497 2.24755 20.1693 2.24792 20.1887 2.2486ZM7.63745 13.1504H16.328C16.9486 13.1504 17.4518 12.6472 17.4518 12.0266C17.4518 11.406 16.9486 10.9028 16.328 10.9028H7.63745C7.01683 10.9028 6.51367 11.406 6.51367 12.0266C6.51367 12.6472 7.01683 13.1504 7.63745 13.1504Z" fill="white"/>
<path d="M16.328 13.1504C16.4756 13.1506 16.6218 13.1216 16.7582 13.0651C16.8946 13.0086 17.0184 12.9257 17.1226 12.8212C17.5615 12.3824 17.5615 11.6709 17.1226 11.232L14.6857 8.7951C14.2469 8.35622 13.5354 8.35622 13.0965 8.7951C12.6576 9.23397 12.6576 9.94547 13.0965 10.3843L15.5334 12.8212C15.6376 12.9258 15.7615 13.0086 15.8979 13.0651C16.0342 13.1216 16.1804 13.1506 16.328 13.1504Z" fill="white"/>
<path d="M13.8912 15.5873C14.0388 15.5875 14.185 15.5585 14.3213 15.502C14.4577 15.4455 14.5815 15.3626 14.6857 15.2581L17.1226 12.8213C17.5615 12.3825 17.5615 11.6709 17.1226 11.232C16.6838 10.7932 15.9723 10.7932 15.5334 11.232L13.0965 13.6689C12.6576 14.1077 12.6576 14.8192 13.0965 15.2582C13.2007 15.3627 13.3246 15.4455 13.461 15.502C13.5974 15.5585 13.7436 15.5875 13.8912 15.5873Z" fill="white"/>
</svg>
