<svg width="110" height="110" viewBox="0 0 110 110" fill="none" xmlns="http://www.w3.org/2000/svg">
<path fill-rule="evenodd" clip-rule="evenodd" d="M0 55C0 85.1304 24.8696 110 55 110C85.1304 110 110 85.1304 110 55C110 24.8696 85.6087 0 55 0C24.3913 0 0 24.8696 0 55ZM4.78261 55C4.78261 27.7391 27.2609 4.78261 55 4.78261C82.7391 4.78261 105.217 27.2609 105.217 55C105.217 82.7391 82.7391 105.217 55 105.217C27.2609 105.217 4.78261 82.2609 4.78261 55ZM23.9128 64.5651H19.1302V43.0434H31.0867V47.826H23.9128V52.6086H26.3044V57.3912H23.9128V64.5651ZM82.739 33C76.0433 24.3913 65.5216 19.6087 54.9999 19.6087C44.4781 19.6087 33.9564 24.3913 27.2607 33L23.4346 29.6522C31.0868 20.0869 42.5651 14.3478 54.9999 14.3478C67.4346 14.3478 78.9129 20.0869 86.5651 29.6522L82.739 33ZM54.9999 95.6522C43.9999 95.6522 33.4781 91.3478 25.3477 82.7391L28.6955 79.3913C35.3912 86.5652 44.9564 90.3913 54.5216 90.3913C64.0868 90.3913 73.652 86.5652 80.3477 79.3913L83.6955 82.7391C76.5216 91.3478 65.9999 95.6522 54.9999 95.6522ZM43.0434 61.2173L48.3042 66.4782L52.1303 63.6086L46.3912 57.8695C49.739 57.3912 52.6086 54.5217 52.6086 50.6956C52.6086 46.8695 49.2608 43.5217 45.4347 43.5217H38.2608V53.0869H34.9129L38.2608 56.4347V65.0434H43.0434V61.2173ZM45.4347 52.6086H43.0434V47.826H45.4347C46.8695 47.826 47.826 48.7825 47.826 50.2173C47.826 51.6521 46.8695 52.6086 45.4347 52.6086ZM57.3912 66.9564H69.3477V62.1738H62.1738V57.3912H64.5651V52.6086H62.1738V47.826H69.3477V43.0434H57.3912V66.9564ZM88.4781 66.9564H76.5216V43.0434H88.4781V47.826H81.3042V52.6086H83.6955V57.3912H81.3042V62.1738H88.4781V66.9564Z" fill="#4A655E"/>
</svg>
