<svg width="49" height="48" viewBox="0 0 49 48" fill="none" xmlns="http://www.w3.org/2000/svg">
<rect x="1.73337" y="1" width="46" height="46" rx="23" stroke="#F5F5F5" stroke-width="2"/>
<path d="M24.7919 7.76167C20.5152 7.71834 16.3962 9.36946 13.3402 12.3521C10.2841 15.3348 8.54111 19.405 8.4942 23.6682C8.51068 27.0373 9.59792 30.3146 11.5998 33.0292C13.6016 35.7438 16.415 37.7562 19.6359 38.7772C20.4508 38.9249 20.7471 38.4375 20.7471 38.0092V35.3064C16.2134 36.2664 15.2504 33.1796 15.2504 33.1796C14.9485 32.2106 14.3069 31.3823 13.4428 30.8461C11.9612 29.8713 13.5613 29.8861 13.5613 29.8861C14.0734 29.9543 14.5634 30.1373 14.9945 30.4212C15.4256 30.7051 15.7866 31.0826 16.0504 31.5255C16.5102 32.3202 17.2647 32.9033 18.1514 33.1491C19.0381 33.3949 19.9862 33.2839 20.7916 32.8399C20.8744 32.0311 21.2418 31.2777 21.8287 30.7131C18.2136 30.3144 14.4207 28.9556 14.4207 22.8559C14.3883 21.2648 14.9781 19.7235 16.0652 18.558C15.5701 17.192 15.6286 15.6873 16.2282 14.3635C16.2282 14.3635 17.6061 13.9352 20.6731 15.9882C23.3428 15.279 26.1522 15.279 28.8219 15.9882C31.9333 13.9352 33.2668 14.3635 33.2668 14.3635C33.8664 15.6873 33.9249 17.192 33.4297 18.558C34.5421 19.7021 35.1639 21.2331 35.1632 22.8263C35.1632 28.9408 31.3407 30.2848 27.7552 30.6836C28.1478 31.0636 28.451 31.5255 28.6432 32.0363C28.8353 32.547 28.9115 33.0939 28.8664 33.6375V37.9944C28.8664 38.5113 29.1627 38.9249 29.9776 38.7624C33.1894 37.7351 35.9933 35.7222 37.989 33.0115C39.9846 30.3007 41.0698 27.0306 41.0897 23.6682C41.0428 19.405 39.2998 15.3348 36.2437 12.3521C33.1877 9.36946 29.0687 7.71834 24.7919 7.76167Z" fill="#FF697D"/>
</svg>
