<svg width="36" height="39" viewBox="0 0 36 39" fill="none" xmlns="http://www.w3.org/2000/svg">
<path fill-rule="evenodd" clip-rule="evenodd" d="M35.2917 15.4593C33.4263 13.4368 31.3234 11.2446 29.0968 8.92393L29.079 8.90531L29.0788 8.9051C26.8362 6.5677 24.5184 4.15199 22.4018 1.86117C19.7092 -0.587242 16.849 -0.622883 14.3812 1.77163C12.3424 3.87175 10.0184 6.11521 7.77073 8.28495L7.75355 8.30153C5.49685 10.4801 3.16459 12.7316 1.10238 14.856C-0.327095 16.3485 -0.0589693 17.5492 0.228628 18.1317C0.680292 19.0481 1.70662 19.5959 2.43801 19.5959H5.62604V29.538C5.62604 31.2101 6.92465 33 8.85802 33H15.0381V27.5V26.5C15.0381 23.8605 21.797 23.8605 21.797 26.5V27.5V33H28.022C29.2226 33 31.2544 32.1078 31.2544 28.7642V19.5959H33.589C34.5039 19.5959 35.2981 19.1512 35.7138 18.4058C36.2067 17.5225 36.062 16.4355 35.2917 15.4593ZM6.00024 37C6.00024 35.8954 6.89567 35 8.00024 35H29.0002C30.1048 35 31.0002 35.8954 31.0002 37C31.0002 38.1046 30.1048 39 29.0002 39H8.00024C6.89567 39 6.00024 38.1046 6.00024 37ZM18.5002 18.0001C20.4331 18.0001 22.0002 16.4331 22.0002 14.5001C22.0002 12.5671 20.4331 11.0001 18.5002 11.0001C16.5672 11.0001 15.0002 12.5671 15.0002 14.5001C15.0002 16.4331 16.5672 18.0001 18.5002 18.0001Z" fill="#CFB365"/>
</svg>
