<svg width="15" height="14" viewBox="0 0 15 14" fill="none" xmlns="http://www.w3.org/2000/svg">
<path fill-rule="evenodd" clip-rule="evenodd" d="M7.1135 7.77741L8.84546 11.6455L11.8651 3.02585L7.1135 7.77741ZM10.9742 2.13493L2.35455 5.15454L6.22259 6.8865L10.9742 2.13493ZM12.9916 0.12703L0.445455 4.51818C0.190909 4.58181 0 4.83636 0 5.09091C0 5.34545 0.127273 5.53636 0.381818 5.66363L5.91818 8.14545L8.33637 13.6182C8.4 13.8727 8.65455 14 8.90909 14C9.22728 14 9.41819 13.8091 9.48182 13.5545L13.873 1.00843C13.9535 0.901401 13.9958 0.778735 13.9997 0.655308C14.0182 0.499223 13.9467 0.328528 13.8091 0.190903C13.8086 0.190407 13.8081 0.189913 13.8076 0.189419C13.5766 -0.0402728 13.2415 -0.0610693 12.9916 0.12703Z" fill="#FF697D"/>
</svg>
