<svg width="40" height="38" viewBox="0 0 40 38" fill="none" xmlns="http://www.w3.org/2000/svg">
<path d="M7.31017 20.0586C7.59973 18.3151 8.2387 16.648 9.18869 15.1577C10.1387 13.6673 11.3801 12.3843 12.8384 11.3857C12.4959 10.732 12.2338 10.0393 12.058 9.32251C10.1648 10.5297 8.56062 12.1389 7.35953 14.036C6.15844 15.933 5.38986 18.0713 5.1084 20.2989C5.77053 20.139 6.44931 20.0583 7.13048 20.0586H7.31017ZM33.2476 20.0586C34.0086 20.0781 34.7501 20.1982 35.471 20.3985C35.2106 18.2389 34.4937 16.1593 33.368 14.298C32.2422 12.4367 30.7333 10.8363 28.9415 9.60287C28.743 10.3115 28.4537 10.9915 28.0809 11.626C30.8267 13.6649 32.6779 16.6864 33.2476 20.0586ZM26.0577 34.0378C24.2556 34.9196 22.276 35.3787 20.2697 35.3801C18.0657 35.3801 16.0036 34.8388 14.2002 33.8776C13.7621 34.4795 13.2509 35.0246 12.6782 35.5002C14.989 36.8252 17.6061 37.5226 20.2697 37.5234C22.9326 37.5234 25.4364 36.8414 27.6198 35.6399C27.0304 35.1774 26.5052 34.6387 26.0577 34.0378Z" fill="#CFB365"/>
<path d="M13.6416 6.99635C13.6416 8.85183 14.3787 10.6313 15.6907 11.9433C17.0027 13.2554 18.7822 13.9924 20.6377 13.9924C22.4932 13.9924 24.2727 13.2554 25.5847 11.9433C26.8967 10.6313 27.6338 8.85183 27.6338 6.99635C27.6338 5.14086 26.8967 3.36138 25.5847 2.04936C24.2727 0.737332 22.4932 0.000244141 20.6377 0.000244141C18.7822 0.000244141 17.0027 0.737332 15.6907 2.04936C14.3787 3.36138 13.6416 5.14086 13.6416 6.99635V6.99635Z" fill="#CFB365"/>
<path d="M0 28.8269C-1.9361e-08 29.7457 0.180959 30.6554 0.532546 31.5042C0.884133 32.353 1.39946 33.1243 2.04911 33.7739C2.69876 34.4236 3.47 34.9389 4.31881 35.2905C5.16761 35.6421 6.07736 35.823 6.9961 35.823C7.91484 35.823 8.82459 35.6421 9.67339 35.2905C10.5222 34.9389 11.2934 34.4236 11.9431 33.7739C12.5927 33.1243 13.1081 32.353 13.4597 31.5042C13.8112 30.6554 13.9922 29.7457 13.9922 28.8269C13.9922 26.9714 13.2551 25.1919 11.9431 23.8799C10.6311 22.5679 8.85158 21.8308 6.9961 21.8308C5.14062 21.8308 3.36113 22.5679 2.04911 23.8799C0.737086 25.1919 0 26.9714 0 28.8269V28.8269Z" fill="#CFB365"/>
<path d="M26.0078 28.8269C26.0078 29.7457 26.1888 30.6554 26.5404 31.5042C26.8919 32.353 27.4073 33.1243 28.0569 33.7739C28.7066 34.4236 29.4778 34.9389 30.3266 35.2905C31.1754 35.6421 32.0852 35.823 33.0039 35.823C33.9227 35.823 34.8324 35.6421 35.6812 35.2905C36.53 34.9389 37.3013 34.4236 37.9509 33.7739C38.6006 33.1243 39.1159 32.353 39.4675 31.5042C39.8191 30.6554 40 29.7457 40 28.8269C40 27.9082 39.8191 26.9984 39.4675 26.1496C39.1159 25.3008 38.6006 24.5296 37.9509 23.8799C37.3013 23.2303 36.53 22.7149 35.6812 22.3634C34.8324 22.0118 33.9227 21.8308 33.0039 21.8308C32.0852 21.8308 31.1754 22.0118 30.3266 22.3634C29.4778 22.7149 28.7066 23.2303 28.0569 23.8799C27.4073 24.5296 26.8919 25.3008 26.5404 26.1496C26.1888 26.9984 26.0078 27.9082 26.0078 28.8269Z" fill="#CFB365"/>
</svg>
