<svg width="279" height="48" viewBox="0 0 279 48" fill="none" xmlns="http://www.w3.org/2000/svg">
<path d="M39.1051 41.9303H11.3237C10.9115 41.9302 10.5143 41.7751 10.211 41.496C9.90766 41.2168 9.72028 40.8338 9.68599 40.423L7.86958 18.7444C7.84348 18.4346 7.90567 18.1238 8.04896 17.8479C8.19224 17.572 8.41076 17.3424 8.67919 17.1856L24.3873 8.03616C24.6383 7.88992 24.9237 7.81287 25.2142 7.81287C25.5048 7.81287 25.7901 7.88992 26.0412 8.03616L41.7481 17.1856C42.0168 17.3422 42.2356 17.5718 42.3791 17.8477C42.5227 18.1235 42.5851 18.4345 42.5592 18.7444L40.7428 40.423C40.7085 40.8338 40.5211 41.2168 40.2178 41.496C39.9145 41.7751 39.5173 41.9302 39.1051 41.9303V41.9303Z" fill="#FF697D"/>
<path d="M47.7967 12.4077L27.383 0.543754C26.7686 0.187577 26.071 0 25.3608 0C24.6505 0 23.9529 0.187577 23.3385 0.543754L2.92483 12.4077C2.26958 12.7907 1.7358 13.351 1.38489 14.024C1.03399 14.697 0.880225 15.4554 0.941293 16.212L3.30216 44.3218C3.39249 45.323 3.85275 46.2547 4.59308 46.9348C5.33341 47.6149 6.30065 47.9947 7.30596 48H43.4121C44.4178 47.9953 45.3856 47.6158 46.1264 46.9356C46.8673 46.2554 47.3278 45.3234 47.4182 44.3218L49.7788 16.2117C49.84 15.4553 49.6865 14.697 49.3358 14.0241C48.9852 13.3511 48.4517 12.7908 47.7967 12.4077ZM18.5849 44.2379V29.0899C18.5852 29.0231 18.6119 28.9591 18.6592 28.912C18.7065 28.8648 18.7706 28.8383 18.8374 28.8383H31.5927C31.6595 28.8383 31.7235 28.8648 31.7707 28.912C31.8179 28.9592 31.8445 29.0232 31.8446 29.0899V44.2376L18.5849 44.2379ZM43.6634 44.0066C43.6579 44.0696 43.6291 44.1282 43.5826 44.171C43.5361 44.2138 43.4753 44.2377 43.4121 44.2379H35.6121V29.0899C35.6101 28.0251 35.1859 27.0045 34.4324 26.2521C33.679 25.4997 32.6578 25.0768 31.593 25.0763H18.8374C17.7726 25.0769 16.7515 25.4998 15.998 26.2522C15.2446 27.0046 14.8203 28.0251 14.8182 29.0899V44.2376H7.30596C7.24277 44.2374 7.18196 44.2135 7.13547 44.1707C7.08899 44.1279 7.06017 44.0693 7.05469 44.0063L4.69382 15.8979C4.68999 15.8504 4.69965 15.8028 4.7217 15.7606C4.74375 15.7183 4.77728 15.6831 4.81844 15.6591L25.2321 3.79519C25.2707 3.77281 25.3144 3.76095 25.359 3.76078C25.4034 3.76073 25.447 3.7725 25.4854 3.7949L45.899 15.6588C45.9402 15.6828 45.9737 15.7179 45.9957 15.7601C46.0177 15.8023 46.0274 15.8499 46.0237 15.8974L43.6634 44.0066ZM12.9021 22.3788H16.6699V12.2906H12.9021V22.3788ZM19.1655 22.7085H26.799V18.9467H22.9334V15.6736H26.7975V11.9112H19.1655V22.7085ZM34.4174 18.6202H33.1642V12.2923H29.3964V22.3817H38.1864V12.2906H34.4174V18.6202Z" fill="#333333"/>
<path d="M80.0931 42.6666H70.3572V14.6666H80.0931V42.6666Z" fill="#333333"/>
<path d="M106.266 42.6666H86.5416V14.6666H106.262V24.4234H96.2776V32.9114H106.266V42.6666Z" fill="#333333"/>
<path d="M122.714 32.9114H125.952V14.6666H135.691V42.6666H112.978V14.6666H122.714V32.9114Z" fill="#333333"/>
<path d="M149.236 42.4899V37.186H143.691V42.4899H149.236Z" fill="#333333"/>
<path d="M168.12 26.1069V21.5102H153.209V42.4899H158.6V34.3868H166.734V29.7901H158.6V26.1069H168.12Z" fill="#333333"/>
<path d="M176.953 42.4899V21.5102H171.562V42.4899H176.953Z" fill="#333333"/>
<path d="M198.53 42.4899V21.5102H193.138V32.059L186.114 21.5102H181.4V42.4899H186.791V31.9411L193.816 42.4899H198.53Z" fill="#333333"/>
<path d="M220.872 42.4899L212.892 21.5102H208.733L200.754 42.4899H206.392L207.47 39.3665H214.217L215.234 42.4899H220.872ZM212.8 35.0645H208.98L210.951 29.466L212.8 35.0645Z" fill="#333333"/>
<path d="M240.23 42.4899V21.5102H234.838V32.059L227.814 21.5102H223.1V42.4899H228.491V31.9411L235.516 42.4899H240.23Z" fill="#333333"/>
<path d="M260.6 35.8306H255.116C254.777 37.0092 254.099 38.07 252.312 38.07C251.327 38.07 250.587 37.687 250.187 37.186C249.694 36.5673 249.355 35.8306 249.355 32C249.355 28.1695 249.694 27.4328 250.187 26.814C250.587 26.3131 251.327 25.9301 252.312 25.9301C254.099 25.9301 254.777 26.9908 255.116 28.1695H260.6C259.799 23.5433 256.441 21.3334 252.282 21.3334C249.725 21.3334 247.784 22.1584 246.182 23.6906C243.871 25.9006 243.963 28.8472 243.963 32C243.963 35.1529 243.871 38.0995 246.182 40.3094C247.784 41.8417 249.725 42.6667 252.282 42.6667C256.441 42.6667 259.799 40.4568 260.6 35.8306Z" fill="#333333"/>
<path d="M278.357 42.4899V37.8932H268.837V34.21H276.971V29.6133H268.837V26.1069H278.357V21.5102H263.446V42.4899H278.357Z" fill="#333333"/>
</svg>
