<svg width="110" height="110" viewBox="0 0 110 110" fill="none" xmlns="http://www.w3.org/2000/svg">
    <path d="M39.0849 57.376L31.0769 73H38.8049L47.6529 55.808C48.4929 54.184 49.1089 52.616 49.5569 51.216C49.9489 49.816 50.1729 48.416 50.1729 46.904V45.168C50.1729 41.584 49.1089 38.784 47.0369 36.768C44.9089 34.752 41.9969 33.744 38.2449 33.744C34.6609 33.744 31.8049 34.752 29.6209 36.824C27.4369 38.896 26.3169 41.752 26.3169 45.392V47.184C26.3169 50.488 27.2129 53.12 29.0609 55.024C30.8529 56.984 33.2609 57.936 36.2849 57.936C37.3489 57.936 38.2449 57.768 39.0849 57.376ZM41.6049 50.488C40.7649 51.384 39.6449 51.832 38.2449 51.832C36.8449 51.832 35.7249 51.384 34.8849 50.488C34.0449 49.648 33.6529 48.416 33.6529 46.792V45.056C33.6529 43.432 34.0449 42.2 34.8849 41.304C35.7249 40.408 36.8449 39.96 38.2449 39.96C39.6449 39.96 40.7649 40.408 41.6049 41.304C42.3889 42.2 42.7809 43.432 42.7809 45V46.848C42.7809 48.416 42.3889 49.648 41.6049 50.488ZM54.4239 65.752C54.9279 66.352 55.7439 66.664 56.8719 66.664C57.9759 66.664 58.7919 66.352 59.3199 65.752C59.8239 65.152 60.0879 64.264 60.0879 63.088V59.68C60.0879 58.552 59.8239 57.688 59.3199 57.136C58.7919 56.584 57.9759 56.296 56.8719 56.296C55.8159 56.296 55.0239 56.584 54.4719 57.136C53.9199 57.712 53.6319 58.552 53.6319 59.68V63.088C53.6319 64.264 53.8959 65.152 54.4239 65.752ZM69.3279 56.32H66.9519L57.7119 73H60.0639L69.3279 56.32ZM57.4959 64.216C57.4239 64.432 57.2079 64.528 56.8719 64.528C56.5359 64.528 56.3199 64.408 56.2479 64.192C56.1519 63.976 56.1039 63.568 56.1039 62.968V59.992C56.1039 59.392 56.1519 58.96 56.2479 58.744C56.3439 58.528 56.5599 58.408 56.8719 58.408C57.1839 58.408 57.3999 58.528 57.4959 58.744C57.5679 58.96 57.6159 59.392 57.6159 59.992V62.968C57.6159 63.592 57.5679 64 57.4959 64.216ZM67.7199 72.232C68.2239 72.832 69.0399 73.144 70.1679 73.144C71.2719 73.144 72.0879 72.832 72.6159 72.232C73.1199 71.632 73.3839 70.744 73.3839 69.568V66.16C73.3839 65.032 73.1199 64.168 72.6159 63.616C72.0879 63.064 71.2719 62.776 70.1679 62.776C69.1119 62.776 68.3199 63.064 67.7679 63.616C67.2159 64.192 66.9279 65.032 66.9279 66.16V69.568C66.9279 70.744 67.1919 71.632 67.7199 72.232ZM70.7919 70.696C70.7199 70.912 70.5039 71.008 70.1679 71.008C69.8319 71.008 69.6159 70.888 69.5439 70.672C69.4479 70.456 69.3999 70.048 69.3999 69.448V66.472C69.3999 65.872 69.4479 65.44 69.5439 65.224C69.6399 65.008 69.8559 64.888 70.1679 64.888C70.4799 64.888 70.6959 65.008 70.7919 65.224C70.8639 65.44 70.9119 65.872 70.9119 66.472V69.448C70.9119 70.072 70.8639 70.48 70.7919 70.696Z" fill="#981C3F"/>
    <circle cx="55" cy="55" r="52" stroke="#981C3F" stroke-width="6"/>
</svg>
