<svg width="222" height="222" viewBox="0 0 222 222" fill="none" xmlns="http://www.w3.org/2000/svg">
    <path d="M222 111C222 136.83 212.992 161.852 196.527 181.754C180.062 201.657 157.172 215.194 131.799 220.034C106.427 224.874 80.1605 220.714 57.5253 208.27C34.8902 195.826 17.3035 175.878 7.79481 151.862C-1.7139 127.846 -2.54922 101.265 5.43272 76.6991C13.4147 52.1332 29.7141 31.1201 51.5232 17.2796C73.3323 3.43913 99.2855 -2.3621 124.912 0.875267C150.538 4.11264 174.234 16.1859 191.916 35.0153L151.501 72.9672C142.65 63.5425 130.79 57.4994 117.963 55.879C105.137 54.2586 92.1461 57.1623 81.2299 64.0899C70.3138 71.0175 62.1554 81.5352 58.1601 93.8313C54.1649 106.127 54.583 119.432 59.3424 131.453C64.1019 143.474 72.9046 153.458 84.2342 159.687C95.5638 165.915 108.711 167.998 121.411 165.575C134.111 163.152 145.568 156.377 153.809 146.415C162.05 136.453 166.559 123.929 166.559 111H222Z" fill="#FF697D"/>
    <path d="M191.812 34.9047C195 38.2909 197.973 41.8741 200.712 45.6331L155.904 78.2817C154.533 76.4002 153.045 74.6067 151.449 72.9118L191.812 34.9047Z" fill="#FBCE5B"/>
    <path d="M200.71 45.6307C214.514 64.5756 221.967 87.4044 222 110.845L166.559 110.923C166.543 99.1896 162.812 87.7631 155.903 78.2805L200.71 45.6307Z" fill="#FBCE5B"/>
</svg>
