<svg width="99" height="125" viewBox="0 0 99 125" fill="none" xmlns="http://www.w3.org/2000/svg">
<path d="M65.7957 79.1572H31.4704C30.961 79.157 30.4703 78.9655 30.0955 78.6205C29.7208 78.2756 29.4893 77.8025 29.4469 77.2949L27.2026 50.5098C27.1704 50.127 27.2472 49.743 27.4242 49.4021C27.6013 49.0613 27.8713 48.7776 28.2029 48.5838L47.6111 37.2793C47.9213 37.0986 48.2738 37.0034 48.6328 37.0034C48.9918 37.0034 49.3444 37.0986 49.6546 37.2793L69.0613 48.5838C69.3933 48.7774 69.6636 49.061 69.841 49.4019C70.0183 49.7427 70.0954 50.1269 70.0634 50.5098L67.8191 77.2949C67.7768 77.8025 67.5453 78.2756 67.1705 78.6205C66.7957 78.9655 66.305 79.157 65.7957 79.1572V79.1572Z" fill="#FF697D"/>
<path d="M76.5349 42.6805L51.3128 28.022C50.5536 27.5819 49.6916 27.3502 48.8141 27.3502C47.9366 27.3502 47.0747 27.5819 46.3155 28.022L21.0934 42.6805C20.2838 43.1538 19.6243 43.846 19.1907 44.6775C18.7571 45.5091 18.5672 46.4461 18.6426 47.3809L21.5596 82.112C21.6712 83.3491 22.2399 84.5002 23.1546 85.3405C24.0693 86.1808 25.2644 86.6501 26.5065 86.6566H71.1175C72.3601 86.6508 73.5558 86.1819 74.4712 85.3415C75.3865 84.5011 75.9556 83.3496 76.0672 82.112L78.9838 47.3805C79.0595 46.446 78.8698 45.5091 78.4365 44.6776C78.0033 43.8462 77.3441 43.1539 76.5349 42.6805V42.6805ZM40.4422 82.0084V63.2922C40.4425 63.2097 40.4755 63.1306 40.534 63.0724C40.5924 63.0141 40.6716 62.9814 40.7541 62.9814H56.514C56.5965 62.9814 56.6756 63.0141 56.7339 63.0724C56.7923 63.1307 56.8251 63.2098 56.8252 63.2922V82.008H40.4422V82.0084ZM71.4279 81.7226C71.4211 81.8004 71.3855 81.8728 71.3281 81.9257C71.2707 81.9786 71.1955 82.0081 71.1175 82.0084H61.4802V63.2922C61.4777 61.9766 60.9535 60.7156 60.0226 59.786C59.0917 58.8563 57.83 58.3338 56.5144 58.3332H40.7541C39.4385 58.3339 38.1769 58.8564 37.246 59.7861C36.3151 60.7157 35.7908 61.9766 35.7883 63.2922V82.008H26.5065C26.4284 82.0077 26.3533 81.9782 26.2958 81.9253C26.2384 81.8724 26.2028 81.8 26.196 81.7222L23.2791 46.9929C23.2743 46.9342 23.2863 46.8753 23.3135 46.8231C23.3407 46.7709 23.3822 46.7275 23.433 46.6978L48.6551 32.0393C48.7028 32.0117 48.7569 31.997 48.812 31.9968C48.8668 31.9967 48.9207 32.0113 48.9681 32.039L74.1902 46.6974C74.241 46.7271 74.2824 46.7705 74.3096 46.8226C74.3369 46.8748 74.3488 46.9335 74.3442 46.9922L71.4279 81.7226ZM33.4208 55.0004H38.0761V42.5358H33.4208V55.0004ZM41.1596 55.4076H50.5911V50.7598H45.815V46.7157H50.5893V42.0671H41.1596V55.4076V55.4076ZM60.004 50.3564H58.4557V42.5379H53.8003V55.0039H64.6608V42.5358H60.004V50.3564V50.3564Z" fill="#333333"/>
<path d="M49.5418 125L46.6563 123.242C45.5551 122.572 19.4459 106.625 10.5106 98.0578C0.683051 88.6399 0.0139397 71.8133 0 71.1017V26.0771H4.87891C11.0124 26.0771 20.2544 22.0867 30.8905 14.8454C39.4076 9.04119 45.8757 3.19511 45.9454 3.1393L49.3885 0L52.8455 3.12535C77.4074 25.3935 93.9817 26.0771 94.1351 26.0771L99 26.0911V70.9761C99 88.8073 88.7682 98.016 88.3361 98.4066L88.1131 98.602L49.5418 125V125ZM9.74388 70.9063C9.78569 71.8272 10.5524 85.2355 17.5919 91.9745C24.1576 98.2671 42.1956 109.736 49.2352 114.117L81.659 91.9187C82.1748 91.4025 83.7918 89.6724 85.3669 86.7842C87.9179 82.1381 89.2143 76.8082 89.2143 70.9761V34.323C86.8446 33.8486 83.6663 33.0115 79.8189 31.5186C69.9217 27.6817 59.676 21.2635 49.3327 12.3898C46.4472 14.7896 41.9725 18.3475 36.7312 21.9193C26.374 28.9653 17.3271 33.1789 9.74388 34.4905V70.9063V70.9063Z" fill="white"/>
</svg>
