<svg width="70" height="73" viewBox="0 0 70 73" fill="none" xmlns="http://www.w3.org/2000/svg">
<path d="M35 72.0277C54.3219 72.0277 69.9849 57.2867 69.9849 39.1007C69.9849 20.9148 71.8226 20.5279 35 20.5279C-1.8226 20.5279 0.015137 20.9148 0.015137 39.1007C0.015137 57.2867 15.6781 72.0277 35 72.0277Z" fill="#EF4259"/>
<path d="M0.0151367 32.9269C0.0151367 41.6597 3.70103 50.0348 10.262 56.2098C16.8229 62.3848 25.7214 65.8539 35 65.8539C44.2786 65.8539 53.1771 62.3848 59.738 56.2098C66.299 50.0348 69.9849 41.6597 69.9849 32.9269C69.9849 24.1942 66.299 15.8191 59.738 9.64408C53.1771 3.46908 44.2786 0 35 0C25.7214 0 16.8229 3.46908 10.262 9.64408C3.70103 15.8191 0.0151367 24.1942 0.0151367 32.9269V32.9269Z" fill="#FFA7B3"/>
<path d="M64.7331 15.5662C65.925 17.3685 66.9316 19.2866 67.7376 21.2914L24.6425 64.3866C22.4844 63.7592 20.3899 62.931 18.3864 61.913L64.7331 15.5662ZM46.4751 1.81306C52.0336 3.62816 56.9541 6.72535 60.8395 10.728L13.0213 58.5482C8.52886 55.1279 4.95422 50.6849 2.69873 45.5915L46.4751 1.81306Z" fill="#FFDBE0"/>
<path d="M4.13098 31.898C4.13098 39.2663 7.38324 46.3327 13.1723 51.5429C18.9614 56.753 26.813 59.6801 35 59.6801C43.1869 59.6801 51.0386 56.753 56.8277 51.5429C62.6167 46.3327 65.869 39.2663 65.869 31.898C65.869 24.5297 62.6167 17.4632 56.8277 12.2531C51.0386 7.04292 43.1869 4.11589 35 4.11589C26.813 4.11589 18.9614 7.04292 13.1723 12.2531C7.38324 17.4632 4.13098 24.5297 4.13098 31.898V31.898Z" fill="#F85F74"/>
<path d="M6.18896 31.898C6.18896 38.7204 9.22441 45.2635 14.6275 50.0877C20.0307 54.9119 27.3589 57.6221 35 57.6221C42.6412 57.6221 49.9694 54.9119 55.3725 50.0877C60.7756 45.2635 63.8111 38.7204 63.8111 31.898C63.8111 28.5198 63.0659 25.1747 61.618 22.0537C60.1701 18.9327 58.0479 16.0969 55.3725 13.7082C52.6972 11.3195 49.5211 9.42469 46.0255 8.13193C42.53 6.83917 38.7836 6.1738 35 6.1738C31.2165 6.1738 27.47 6.83917 23.9745 8.13193C20.479 9.42469 17.3029 11.3195 14.6275 13.7082C11.9522 16.0969 9.82997 18.9327 8.38208 22.0537C6.93419 25.1747 6.18896 28.5198 6.18896 31.898V31.898Z" fill="#FF697D"/>
<path d="M63.6052 34.9849C61.8971 47.7359 49.7409 57.6222 34.9999 57.6222C20.2589 57.6222 8.10274 47.7359 6.39465 34.9849H63.6052Z" fill="#F54D64"/>
<path d="M35.0001 6.1738C45.4256 6.1738 54.5566 11.117 59.615 18.5214H10.3872C15.4456 11.117 24.5767 6.1738 35.0021 6.1738H35.0001Z" fill="#FFA7B3"/>
<path d="M46.0057 43.659H23.6239C23.2918 43.6589 22.9718 43.534 22.7274 43.309C22.4831 43.0841 22.3321 42.7756 22.3045 42.4446L20.8411 24.9794C20.8201 24.7298 20.8702 24.4794 20.9856 24.2571C21.1011 24.0349 21.2771 23.8499 21.4934 23.7236L34.1485 16.3524C34.3507 16.2346 34.5806 16.1725 34.8147 16.1725C35.0488 16.1725 35.2787 16.2346 35.4809 16.3524L48.1351 23.7236C48.3516 23.8497 48.5278 24.0347 48.6435 24.257C48.7591 24.4792 48.8094 24.7297 48.7885 24.9794L47.3252 42.4446C47.2975 42.7756 47.1466 43.0841 46.9022 43.309C46.6578 43.534 46.3379 43.6589 46.0057 43.659V43.659Z" fill="#FF697D"/>
<path d="M53.0081 19.8742L36.562 10.3162C36.067 10.0292 35.505 9.87808 34.9328 9.87808C34.3606 9.87808 33.7986 10.0292 33.3036 10.3162L16.8575 19.8742C16.3296 20.1828 15.8995 20.6342 15.6168 21.1764C15.3341 21.7186 15.2102 22.3296 15.2594 22.9391L17.1614 45.5856C17.2342 46.3923 17.605 47.1428 18.2015 47.6908C18.7979 48.2387 19.5772 48.5447 20.3871 48.5489H49.4757C50.286 48.5451 51.0657 48.2394 51.6625 47.6914C52.2593 47.1434 52.6304 46.3926 52.7032 45.5856L54.605 22.9389C54.6543 22.3295 54.5306 21.7186 54.2481 21.1765C53.9656 20.6343 53.5358 20.1829 53.0081 19.8742V19.8742ZM29.4739 45.5181V33.3142C29.4741 33.2603 29.4956 33.2088 29.5337 33.1708C29.5718 33.1328 29.6235 33.1115 29.6773 33.1115H39.9535C40.0073 33.1115 40.0589 33.1328 40.0969 33.1708C40.135 33.2088 40.1564 33.2604 40.1564 33.3142V45.5178H29.4739V45.5181ZM49.6782 45.3317C49.6737 45.3824 49.6505 45.4296 49.6131 45.4641C49.5756 45.4986 49.5266 45.5178 49.4757 45.5181H43.1917V33.3142C43.1901 32.4563 42.8483 31.6341 42.2413 31.0279C41.6343 30.4217 40.8116 30.081 39.9538 30.0806H29.6773C28.8194 30.0811 27.9968 30.4218 27.3898 31.028C26.7828 31.6341 26.441 32.4563 26.4393 33.3142V45.5178H20.3871C20.3362 45.5176 20.2872 45.4984 20.2497 45.4639C20.2123 45.4294 20.1891 45.3822 20.1846 45.3315L18.2826 22.6861C18.2795 22.6479 18.2873 22.6095 18.3051 22.5755C18.3229 22.5414 18.3499 22.5131 18.383 22.4937L34.8291 12.9357C34.8602 12.9176 34.8955 12.9081 34.9314 12.9079C34.9672 12.9079 35.0023 12.9174 35.0332 12.9354L51.4793 22.4935C51.5124 22.5128 51.5394 22.5411 51.5572 22.5751C51.5749 22.6091 51.5828 22.6474 51.5797 22.6857L49.6782 45.3317ZM24.8955 27.9074H27.9311V19.7799H24.8955V27.9074ZM29.9417 28.173H36.0915V25.1423H32.9772V22.5054H36.0903V19.4743H29.9417V28.173V28.173ZM42.2292 24.8793H41.2196V19.7813H38.184V27.9098H45.2657V19.7799H42.2292V24.8793V24.8793Z" fill="white"/>
</svg>
