<svg width="48" height="48" viewBox="0 0 48 48" fill="none" xmlns="http://www.w3.org/2000/svg">
<rect x="1" y="1" width="46" height="46" rx="23" stroke="#F5F5F5" stroke-width="2"/>
<path d="M37.0909 15.6742C36.1133 16.1191 35.0732 16.4112 34.0069 16.5404C35.136 15.8435 35.9749 14.7616 36.3687 13.4945C35.3172 14.1345 34.162 14.586 32.9552 14.8287C32.4591 14.2819 31.8541 13.8448 31.1791 13.5455C30.5041 13.2463 29.774 13.0914 29.0356 13.0909C26.0705 13.0909 23.6661 15.5564 23.6661 18.5989C23.6661 19.0309 23.712 19.4498 23.8036 19.8535C19.3396 19.6233 15.3818 17.4316 12.7309 14.0967C12.2529 14.9419 12.0025 15.8967 12.0043 16.8676C12.0043 18.7778 12.9534 20.4644 14.3934 21.4527C13.5388 21.4243 12.7039 21.1884 11.9607 20.7655V20.8331C11.9607 23.5025 13.812 25.7291 16.2698 26.2331C15.8099 26.3635 15.334 26.4288 14.856 26.4273C14.5101 26.4273 14.172 26.3945 13.8447 26.3291C14.5276 28.5175 16.5109 30.1102 18.8618 30.1527C17.7568 31.0468 16.4834 31.7096 15.1173 32.1019C13.7511 32.4941 12.32 32.6077 10.9091 32.436C13.3526 34.0485 16.2156 34.9084 19.1432 34.9091C29.0247 34.9091 34.4269 26.5178 34.4269 19.2382C34.4269 18.9982 34.4214 18.7593 34.4127 18.5247C35.4621 17.748 36.3731 16.7793 37.0909 15.6742Z" fill="#FF697D"/>
</svg>
